<svg xmlns="http://www.w3.org/2000/svg" xmlns:xlink="http://www.w3.org/1999/xlink" viewBox="0 0 1000 1000"><defs><style>.a{fill:#17324a;}.b{fill:url(#a);}.c{fill:#007035;}</style><linearGradient id="a" x1="512.29" y1="926.93" x2="512.29" y2="429.52" gradientUnits="userSpaceOnUse"><stop offset="0" stop-color="#fff"/><stop offset="0.54" stop-color="#fbfbfb"/><stop offset="1" stop-color="#f1f2f2"/></linearGradient></defs><title>asset_and_capacity</title><path class="a" d="M835.76,337.17c-8.3-141.74-125.13-255-265.95-255-85.48,0-168.19,41.89-219.54,110.29-1.14-.61-2.38-1-3.6-1.61-3.07-1.46-6.24-2.91-9.39-4.13-1.85-.79-3.76-1.48-5.69-2.09-3.07-1.08-6.22-2.07-9.44-2.91-1.85-.55-3.7-1-5.61-1.48-3.46-.77-7-1.38-10.55-1.91-1.69-.24-3.31-.55-5-.77a149.72,149.72,0,0,0-15.82-.92c-78.1,0-141.66,63.56-141.66,141.66,0,2,.06,4,.22,6C78.25,360,33.28,434.79,33.28,509.66c0,111.53,90.69,202.23,202.23,202.23a15.76,15.76,0,0,0,0-31.52c-94.16,0-170.7-76.55-170.7-170.7,0-65.43,42.58-133.3,101.22-161.42l8.91-4.23V334.1c0-1.93.16-3.92.24-5.92l.16-2.7-.16-3.23a32.7,32.7,0,0,1-.24-3.92A110.38,110.38,0,0,1,285.18,208.1a114,114,0,0,1,14.44,1.08c1.24.16,2.46.39,3.7.53a122.43,122.43,0,0,1,12.38,2.85c.53.16,1.14.24,1.69.39A119.47,119.47,0,0,1,330.52,218c1.08.47,2.16,1,3.25,1.53a110.32,110.32,0,0,1,61.55,98.78,15.76,15.76,0,1,0,31.52,0,141.28,141.28,0,0,0-50.36-108.15c45.12-59,119.46-96.46,193.33-96.46,122,0,223.21,96.54,233.75,218.6-16.08-1.16-40.2-1.69-64.27,1.93a15.76,15.76,0,0,0,2.38,31.35,14.69,14.69,0,0,0,2.38-.22c35-5.23,71.49-.31,73.71,0,73.34,13.91,128.52,81.39,128.52,157.19,0,87-70.78,157.8-157.8,157.8a15.76,15.76,0,1,0,0,31.52c104.39,0,189.32-84.93,189.32-189.32,0-86.4-60.25-164-142.05-185.4Zm0,0"/><circle class="b" cx="512.29" cy="678.22" r="248.7"/><path class="c" d="M496,511.76c-35.56,0-67.81,7.13-91.7,19.07S364,560.15,364,580.9V782c0,20.75,16.4,38.12,40.29,50.07s56.14,19.07,91.7,19.07c31.21,0,59.85-5.52,82.54-14.93a69.11,69.11,0,1,0,49.45-123V580.9c0-20.75-16.4-38.12-40.3-50.07S531.6,511.76,496,511.76Zm0,12.57c33.86,0,64.47,6.94,86.08,17.74s33.34,24.86,33.34,38.82-11.74,28-33.34,38.82S529.9,637.47,496,637.47s-64.47-6.94-86.08-17.74-33.34-24.86-33.34-38.82,11.74-28,33.34-38.82,52.21-17.74,86.08-17.74Zm0,9.43c-32.59,0-62,6.81-81.86,16.75S386,571.85,386,580.9a3.14,3.14,0,0,0,6.29.09v-.09c0-4.77,5.9-15.39,24.66-24.77S464.34,540,496,540a3.14,3.14,0,0,0,.09-6.29ZM376.62,610.83c7,7.76,16.53,14.54,27.72,20.14C428.23,642.91,460.48,650,496,650s67.81-7.13,91.69-19.07c11.19-5.6,20.73-12.38,27.73-20.14v37.12c0,14-11.74,28-33.34,38.82S529.9,704.51,496,704.51s-64.47-6.94-86.08-17.74-33.34-24.86-33.34-38.82Zm0,67c7,7.76,16.53,14.55,27.72,20.14,23.89,11.95,56.14,19.07,91.7,19.07S563.84,710,587.73,698c11.19-5.59,20.73-12.37,27.73-20.14v35.3a69.3,69.3,0,0,0-60.81,50.91A224,224,0,0,1,496,771.55c-33.86,0-64.47-6.94-86.08-17.74S376.62,728.95,376.62,715Zm244.79,47.59A56.57,56.57,0,1,1,564.85,782a56.47,56.47,0,0,1,56.57-56.57Zm-5.83,5.6a3,3,0,0,0-.84.09,59.29,59.29,0,0,0-45.2,49.5,3.15,3.15,0,0,0,6.21,1,.92.92,0,0,0,0-.13,53,53,0,0,1,40.41-44.25,3.14,3.14,0,0,0-.59-6.21Zm3.11,13.26h0a3.78,3.78,0,0,0-3.55,2.5l-2.1,5.83a30.68,30.68,0,0,0-6.5,2.69l-5.6-2.64a3.77,3.77,0,0,0-4.28.75l-3.84,3.85a3.77,3.77,0,0,0-.74,4.27l2.63,5.59a30.58,30.58,0,0,0-2.71,6.53l-5.81,2.09a3.78,3.78,0,0,0-2.49,3.55v5.44a3.78,3.78,0,0,0,2.49,3.55l5.83,2.1a30.34,30.34,0,0,0,2.69,6.5l-2.64,5.6a3.77,3.77,0,0,0,.75,4.28l3.84,3.84a3.77,3.77,0,0,0,4.28.74l5.59-2.63a30.53,30.53,0,0,0,6.52,2.7l2.09,5.82a3.78,3.78,0,0,0,3.55,2.49h5.44a3.78,3.78,0,0,0,3.55-2.49l2.09-5.84a30.26,30.26,0,0,0,6.5-2.68l5.61,2.64a3.76,3.76,0,0,0,4.27-.74l3.84-3.84a3.78,3.78,0,0,0,.75-4.28l-2.64-5.59a30.53,30.53,0,0,0,2.71-6.52l5.81-2.09a3.78,3.78,0,0,0,2.5-3.54v-5.44a3.77,3.77,0,0,0-2.5-3.55l-5.84-2.11a30.77,30.77,0,0,0-2.69-6.5l2.65-5.6a3.76,3.76,0,0,0-.75-4.28l-3.84-3.84a3.76,3.76,0,0,0-4.27-.74l-5.6,2.63a30.16,30.16,0,0,0-6.52-2.7l-2.09-5.82a3.77,3.77,0,0,0-3.55-2.49h-5.44Zm-242.07.6c7,7.76,16.53,14.55,27.72,20.14,23.89,11.95,56.14,19.07,91.7,19.07a239.71,239.71,0,0,0,56.39-6.49c-.09,1.46-.15,2.92-.15,4.4a68.83,68.83,0,0,0,16.38,44.6c-20.07,7.44-45.27,12-72.61,12-33.86,0-64.47-6.94-86.08-17.74S376.62,796,376.62,782Zm244.79,22A15.08,15.08,0,1,1,606.33,782a15.08,15.08,0,0,1,15.09-15.08Zm0,0"/></svg>