<svg xmlns="http://www.w3.org/2000/svg" xmlns:xlink="http://www.w3.org/1999/xlink" viewBox="0 0 1000 1000"><defs><style>.a{fill:#17324a;}.b{fill:url(#a);}.c{fill:#007035;}.c,.d{stroke:#007035;stroke-miterlimit:10;}.d{fill:none;stroke-width:2.8px;}</style><linearGradient id="a" x1="512.29" y1="926.93" x2="512.29" y2="429.52" gradientUnits="userSpaceOnUse"><stop offset="0" stop-color="#fff"/><stop offset="0.54" stop-color="#fbfbfb"/><stop offset="1" stop-color="#f1f2f2"/></linearGradient></defs><title>automation_management</title><path class="a" d="M835.76,337.17c-8.3-141.74-125.13-255-265.95-255-85.48,0-168.19,41.89-219.54,110.29-1.14-.61-2.38-1-3.6-1.61-3.07-1.46-6.24-2.91-9.39-4.13-1.85-.79-3.76-1.48-5.69-2.09-3.07-1.08-6.22-2.07-9.44-2.91-1.85-.55-3.7-1-5.61-1.48-3.46-.77-7-1.38-10.55-1.91-1.69-.24-3.31-.55-5-.77a149.72,149.72,0,0,0-15.82-.92c-78.1,0-141.66,63.56-141.66,141.66,0,2,.06,4,.22,6C78.25,360,33.28,434.79,33.28,509.66c0,111.53,90.69,202.23,202.23,202.23a15.76,15.76,0,0,0,0-31.52c-94.16,0-170.7-76.55-170.7-170.7,0-65.43,42.58-133.3,101.22-161.42l8.91-4.23V334.1c0-1.93.16-3.92.24-5.92l.16-2.7-.16-3.23a32.7,32.7,0,0,1-.24-3.92A110.38,110.38,0,0,1,285.18,208.1a114,114,0,0,1,14.44,1.08c1.24.16,2.46.39,3.7.53a122.43,122.43,0,0,1,12.38,2.85c.53.16,1.14.24,1.69.39A119.47,119.47,0,0,1,330.52,218c1.08.47,2.16,1,3.25,1.53a110.32,110.32,0,0,1,61.55,98.78,15.76,15.76,0,1,0,31.52,0,141.28,141.28,0,0,0-50.36-108.15c45.12-59,119.46-96.46,193.33-96.46,122,0,223.21,96.54,233.75,218.6-16.08-1.16-40.2-1.69-64.27,1.93a15.76,15.76,0,0,0,2.38,31.35,14.69,14.69,0,0,0,2.38-.22c35-5.23,71.49-.31,73.71,0,73.34,13.91,128.52,81.39,128.52,157.19,0,87-70.78,157.8-157.8,157.8a15.76,15.76,0,1,0,0,31.52c104.39,0,189.32-84.93,189.32-189.32,0-86.4-60.25-164-142.05-185.4Zm0,0"/><circle class="b" cx="512.29" cy="678.22" r="248.7"/><path class="c" d="M667.37,585a18.56,18.56,0,0,0-21.29-8.08l-26.33,8A141.73,141.73,0,0,0,593,561.06L598.14,534a18.67,18.67,0,0,0-10.46-20.34,187.71,187.71,0,0,0-31.7-11A18.52,18.52,0,0,0,535.23,512c-4.16,7.79-10.06,18.84-12.94,24.31a141.8,141.8,0,0,0-35.74,2L471,515.55a18.64,18.64,0,0,0-21.8-7A185.94,185.94,0,0,0,419,523.14a18.58,18.58,0,0,0-8.08,21.29c2.56,8.45,6.25,20.43,8,26.31a142,142,0,0,0-23.86,26.71l-27-5.11a18.61,18.61,0,0,0-20.34,10.46,184.69,184.69,0,0,0-11.06,31.7A18.58,18.58,0,0,0,346,655.28c7.8,4.16,18.85,10,24.31,12.94a140.45,140.45,0,0,0,2,35.72l-22.73,15.56a18.61,18.61,0,0,0-7,21.77,184.64,184.64,0,0,0,14.6,30.21,18.54,18.54,0,0,0,21.27,8.09c8.45-2.57,20.45-6.22,26.35-8a140.16,140.16,0,0,0,26.68,23.87l-5.09,27.06a18.66,18.66,0,0,0,10.46,20.34,187.2,187.2,0,0,0,31.69,11,18.6,18.6,0,0,0,20.78-9.35c4.16-7.79,10-18.83,12.92-24.3a140.72,140.72,0,0,0,35.75-2l15.54,22.73a18.58,18.58,0,0,0,21.76,7q7.79-2.93,15.28-6.52c5.1-2.46,10.11-5.17,14.93-8.08A18.49,18.49,0,0,0,613.63,812c-2.56-8.45-6.22-20.45-8-26.35A141,141,0,0,0,629.45,759l27.06,5.09a18.61,18.61,0,0,0,20.34-10.46,185,185,0,0,0,11-31.7,18.59,18.59,0,0,0-9.36-20.78c-7.77-4.17-18.83-10-24.3-12.92a141.43,141.43,0,0,0-2-35.75L675,636.95a18.6,18.6,0,0,0,7-21.77A184.66,184.66,0,0,0,667.37,585Zm4,34.14a7.31,7.31,0,0,1-2.72,8.54l-25.81,17.63a5.63,5.63,0,0,0-2.34,5.84,130.14,130.14,0,0,1,2.21,39.82,5.69,5.69,0,0,0,3,5.56s16.87,9,27.59,14.67a7.25,7.25,0,0,1,3.66,8.07,174,174,0,0,1-10.32,29.67,7.34,7.34,0,0,1-8,4.09l-30.7-5.79a5.67,5.67,0,0,0-5.79,2.48,130.12,130.12,0,0,1-26.57,29.73,5.64,5.64,0,0,0-1.82,6s5.6,18.26,9.12,29.9a7.23,7.23,0,0,1-3.11,8.3,172.47,172.47,0,0,1-28.28,13.64,7.32,7.32,0,0,1-8.54-2.72l-17.63-25.81a5.63,5.63,0,0,0-5.85-2.33,130.21,130.21,0,0,1-39.81,2.21,5.67,5.67,0,0,0-3,.52,5.74,5.74,0,0,0-2.55,2.45s-9,16.87-14.67,27.59a7.26,7.26,0,0,1-8.07,3.67,174.45,174.45,0,0,1-29.67-10.33,7.33,7.33,0,0,1-4.09-8l5.79-30.7a5.69,5.69,0,0,0-2.48-5.8,129.93,129.93,0,0,1-29.73-26.57,5.63,5.63,0,0,0-6-1.81s-18.26,5.59-29.9,9.12a7.26,7.26,0,0,1-8.3-3.11,172.54,172.54,0,0,1-13.64-28.28,7.34,7.34,0,0,1,2.72-8.54l25.81-17.63a5.67,5.67,0,0,0,2.34-5.84,129.92,129.92,0,0,1-2.21-39.81,5.69,5.69,0,0,0-3-5.56s-16.87-9-27.59-14.67a7.29,7.29,0,0,1-3.68-8.1A173.82,173.82,0,0,1,358,607.57a7.33,7.33,0,0,1,8-4.09l30.7,5.79a5.67,5.67,0,0,0,5.79-2.48,130.21,130.21,0,0,1,26.57-29.73,5.63,5.63,0,0,0,1.82-6s-5.58-18.28-9.12-29.9a7.22,7.22,0,0,1,3.11-8.3,172.77,172.77,0,0,1,28.3-13.65,7.29,7.29,0,0,1,8.52,2.73l17.63,25.81a5.64,5.64,0,0,0,5.85,2.33A130.12,130.12,0,0,1,525,547.85a5.67,5.67,0,0,0,5.55-3s9-16.87,14.67-27.59a7.3,7.3,0,0,1,8.1-3.68,173.78,173.78,0,0,1,29.64,10.35,7.34,7.34,0,0,1,4.1,8l-5.8,30.7a5.69,5.69,0,0,0,2.48,5.8A130.14,130.14,0,0,1,613.46,595a5.67,5.67,0,0,0,6,1.82s18.27-5.6,29.9-9.12a7.23,7.23,0,0,1,8.3,3.11,172.54,172.54,0,0,1,13.64,28.28Zm0,0"/><path class="d" d="M553.88,669.57l-49.27-30.79a15.4,15.4,0,0,0-23.56,13.06v61.59a15.4,15.4,0,0,0,23.56,13.06l49.27-30.79a15.4,15.4,0,0,0,0-26.11Zm0,0"/></svg>