<svg xmlns="http://www.w3.org/2000/svg" xmlns:xlink="http://www.w3.org/1999/xlink" viewBox="0 0 1000 1000"><defs><style>.a{fill:#17324a;}.b{fill:url(#a);}.c{fill:none;stroke:#007035;stroke-miterlimit:10;stroke-width:8px;}</style><linearGradient id="a" x1="512.29" y1="926.93" x2="512.29" y2="429.52" gradientUnits="userSpaceOnUse"><stop offset="0" stop-color="#fff"/><stop offset="0.54" stop-color="#fbfbfb"/><stop offset="1" stop-color="#f1f2f2"/></linearGradient></defs><title>availability-and-performanc</title><path class="a" d="M835.76,337.17c-8.3-141.74-125.13-255-265.95-255-85.48,0-168.19,41.89-219.54,110.29-1.14-.61-2.38-1-3.6-1.61-3.07-1.46-6.24-2.91-9.39-4.13-1.85-.79-3.76-1.48-5.69-2.09-3.07-1.08-6.22-2.07-9.44-2.91-1.85-.55-3.7-1-5.61-1.48-3.46-.77-7-1.38-10.55-1.91-1.69-.24-3.31-.55-5-.77a149.72,149.72,0,0,0-15.82-.92c-78.1,0-141.66,63.56-141.66,141.66,0,2,.06,4,.22,6C78.25,360,33.28,434.79,33.28,509.66c0,111.53,90.69,202.23,202.23,202.23a15.76,15.76,0,0,0,0-31.52c-94.16,0-170.7-76.55-170.7-170.7,0-65.43,42.58-133.3,101.22-161.42l8.91-4.23V334.1c0-1.93.16-3.92.24-5.92l.16-2.7-.16-3.23a32.7,32.7,0,0,1-.24-3.92A110.38,110.38,0,0,1,285.18,208.1a114,114,0,0,1,14.44,1.08c1.24.16,2.46.39,3.7.53a122.43,122.43,0,0,1,12.38,2.85c.53.16,1.14.24,1.69.39A119.47,119.47,0,0,1,330.52,218c1.08.47,2.16,1,3.25,1.53a110.32,110.32,0,0,1,61.55,98.78,15.76,15.76,0,1,0,31.52,0,141.28,141.28,0,0,0-50.36-108.15c45.12-59,119.46-96.46,193.33-96.46,122,0,223.21,96.54,233.75,218.6-16.08-1.16-40.2-1.69-64.27,1.93a15.76,15.76,0,0,0,2.38,31.35,14.69,14.69,0,0,0,2.38-.22c35-5.23,71.49-.31,73.71,0,73.34,13.91,128.52,81.39,128.52,157.19,0,87-70.78,157.8-157.8,157.8a15.76,15.76,0,1,0,0,31.52c104.39,0,189.32-84.93,189.32-189.32,0-86.4-60.25-164-142.05-185.4Zm0,0"/><circle class="b" cx="512.29" cy="678.22" r="248.7"/><path class="c" d="M659.27,532.48a10.68,10.68,0,0,0-8.38-3.14l-49.08,3.59a10.69,10.69,0,1,0,1.56,21.33l20.39-1.49-71.84,71.94-83.56-70.76a10.69,10.69,0,0,0-14.48.6L351,657.39a10.7,10.7,0,0,0,15.13,15.13L462,576.64l83.57,70.76a10.7,10.7,0,0,0,14.48-.6l78.51-78.62L637,587.76a10.69,10.69,0,0,0,9.78,11.54c.3,0,.6,0,.89,0a10.7,10.7,0,0,0,10.65-9.81l4-48.65a10.72,10.72,0,0,0-3.06-8.41Zm0,0"/><path class="c" d="M443.31,655.07a10.71,10.71,0,0,0-11.66,2.32l-44.44,44.44a10.7,10.7,0,0,0-3.13,7.56v117.4a10.7,10.7,0,0,0,10.7,10.69h44.44a10.7,10.7,0,0,0,10.7-10.69V664.95a10.69,10.69,0,0,0-6.6-9.88Zm0,0"/><path class="c" d="M491.22,657.39A10.7,10.7,0,0,0,473,664.95V826.79a10.7,10.7,0,0,0,10.7,10.69h44.44a10.69,10.69,0,0,0,10.7-10.69V709.39a10.69,10.69,0,0,0-3.13-7.56Zm0,0"/><path class="c" d="M621.09,655.07a10.7,10.7,0,0,0-11.66,2.32L565,701.83a10.7,10.7,0,0,0-3.13,7.56V826.78a10.69,10.69,0,0,0,10.7,10.7H617a10.7,10.7,0,0,0,10.7-10.7V664.95a10.69,10.69,0,0,0-6.6-9.88Zm0,0"/></svg>