<svg xmlns="http://www.w3.org/2000/svg" xmlns:xlink="http://www.w3.org/1999/xlink" viewBox="0 0 1000 1000"><defs><style>.a{fill:#17324a;}.b{fill:url(#a);}.c{fill:#007035;}</style><linearGradient id="a" x1="508.62" y1="928.32" x2="508.62" y2="430.91" gradientUnits="userSpaceOnUse"><stop offset="0" stop-color="#fff"/><stop offset="0.54" stop-color="#fbfbfb"/><stop offset="1" stop-color="#f1f2f2"/></linearGradient></defs><title>configuration_management</title><path class="a" d="M835.76,337.17c-8.3-141.74-125.13-255-265.95-255-85.48,0-168.19,41.89-219.54,110.29-1.14-.61-2.38-1-3.6-1.61-3.07-1.46-6.24-2.91-9.39-4.13-1.85-.79-3.76-1.48-5.69-2.09-3.07-1.08-6.22-2.07-9.44-2.91-1.85-.55-3.7-1-5.61-1.48-3.46-.77-7-1.38-10.55-1.91-1.69-.24-3.31-.55-5-.77a149.72,149.72,0,0,0-15.82-.92c-78.1,0-141.66,63.56-141.66,141.66,0,2,.06,4,.22,6C78.25,360,33.28,434.79,33.28,509.66c0,111.53,90.69,202.23,202.23,202.23a15.76,15.76,0,0,0,0-31.52c-94.16,0-170.7-76.55-170.7-170.7,0-65.43,42.58-133.3,101.22-161.42l8.91-4.23V334.1c0-1.93.16-3.92.24-5.92l.16-2.7-.16-3.23a32.7,32.7,0,0,1-.24-3.92A110.38,110.38,0,0,1,285.18,208.1a114,114,0,0,1,14.44,1.08c1.24.16,2.46.39,3.7.53a122.43,122.43,0,0,1,12.38,2.85c.53.16,1.14.24,1.69.39A119.47,119.47,0,0,1,330.52,218c1.08.47,2.16,1,3.25,1.53a110.32,110.32,0,0,1,61.55,98.78,15.76,15.76,0,1,0,31.52,0,141.28,141.28,0,0,0-50.36-108.15c45.12-59,119.46-96.46,193.33-96.46,122,0,223.21,96.54,233.75,218.6-16.08-1.16-40.2-1.69-64.27,1.93a15.76,15.76,0,0,0,2.38,31.35,14.69,14.69,0,0,0,2.38-.22c35-5.23,71.49-.31,73.71,0,73.34,13.91,128.52,81.39,128.52,157.19,0,87-70.78,157.8-157.8,157.8a15.76,15.76,0,1,0,0,31.52c104.39,0,189.32-84.93,189.32-189.32,0-86.4-60.25-164-142.05-185.4Zm0,0"/><circle class="b" cx="508.62" cy="679.61" r="248.7"/><path class="c" d="M663.28,702l-8.18-3.24a145.71,145.71,0,0,0-.63-42.61l8.09-3.53a23.12,23.12,0,0,0,12.1-30.51L664.35,598.2a23.2,23.2,0,0,0-21.31-14,22.76,22.76,0,0,0-9.21,1.92l-8.09,3.49a145.15,145.15,0,0,0-30.6-29.69l3.28-8.22a23.27,23.27,0,0,0-13-30.13l-24.24-9.63a23.63,23.63,0,0,0-8.52-1.61A23.22,23.22,0,0,0,531,525l-3.24,8.26a148.67,148.67,0,0,0-42.61.6l-3.49-8.14c-4.9-11.42-19-17.08-30.51-12.1l-23.91,10.31A23.25,23.25,0,0,0,415.1,554.4l3.5,8.14A146.8,146.8,0,0,0,389,593.13l-8.27-3.28a22.63,22.63,0,0,0-8.56-1.67,23.07,23.07,0,0,0-21.57,14.71L341,627a23.22,23.22,0,0,0,13,30.17l8.23,3.23a145.74,145.74,0,0,0,.63,42.62l-8.09,3.49a23.22,23.22,0,0,0-12.14,30.56l10.31,23.95a23.28,23.28,0,0,0,21.31,14,22.75,22.75,0,0,0,9.21-1.91l8.14-3.5a146.47,146.47,0,0,0,30.56,29.75l-3.24,8.14a23.22,23.22,0,0,0,13,30.17l24.21,9.62a23.23,23.23,0,0,0,30.13-13l3.28-8.27a146.83,146.83,0,0,0,42.57-.56l3.53,8.15a23.18,23.18,0,0,0,30.51,12.05L590,835.34a23.09,23.09,0,0,0,12.32-30l27.27,27.27a8.76,8.76,0,0,0,12.36,0l23.82-23.83a8.76,8.76,0,0,0,0-12.36l-26.13-26.12a23.68,23.68,0,0,0,5.45.72,23,23,0,0,0,21.57-14.66l9.63-24.15a23.14,23.14,0,0,0-.26-17.86A22.89,22.89,0,0,0,663.28,702ZM635.8,814.07,602.69,781v0l-46.2-46.14a0,0,0,0,0,0,0l-12.83-12.83,5.67-5.66a.09.09,0,0,1,.09-.09s0-.09.09-.09l5.66-5.71,11.8,11.84a0,0,0,0,1,0,0l46.62,46.62h0l33.7,33.66ZM570.35,700.94,563,693.57a54.88,54.88,0,0,0-13.59-54.68A54.11,54.11,0,0,0,510.86,623a54.73,54.73,0,0,0-21.78,4.52,8.72,8.72,0,0,0-2.73,14.15l24,24L498.8,677.12l-23.94-24a8.89,8.89,0,0,0-7.84-2.42,8.78,8.78,0,0,0-6.35,5.12,54.64,54.64,0,0,0,66.14,73.93L536,739a66.45,66.45,0,1,1,34.35-38.1Zm-59.62,13.81a37.19,37.19,0,0,1-37.16-38.18l19.09,19.09a9,9,0,0,0,12.32,0l23.86-23.87a8.72,8.72,0,0,0,0-12.35l-19-19A36.31,36.31,0,0,1,537,651.26a37.23,37.23,0,0,1,0,52.54l-.09.09a36.89,36.89,0,0,1-26.25,10.87Zm149.35,11-9.63,24.21a5.74,5.74,0,0,1-7.45,3.2l-14.75-5.85a8.73,8.73,0,0,0-9.5,2.05l-34.94-34.94A82.56,82.56,0,1,0,549,752l28.33,28.34,6,5.92c-.13.08-.25.21-.38.29a8.7,8.7,0,0,0-3.07,10.61l6.26,14.49a5.78,5.78,0,0,1,0,4.47,5.54,5.54,0,0,1-3.07,3.11l-23.91,10.35a5.85,5.85,0,0,1-7.58-3l-6.22-14.53a8.79,8.79,0,0,0-9.85-5.07,130.8,130.8,0,0,1-50,.68,8.6,8.6,0,0,0-9.67,5.38L470,827.79a5.8,5.8,0,0,1-7.49,3.24l-24.16-9.59a5.66,5.66,0,0,1-3.2-3.07,5.78,5.78,0,0,1,0-4.47l5.79-14.62a8.71,8.71,0,0,0-3.36-10.53,128.66,128.66,0,0,1-35.88-34.85,8.74,8.74,0,0,0-10.57-3.07l-14.62,6.26a5.87,5.87,0,0,1-7.54-3l-10.32-23.95a5.71,5.71,0,0,1,3-7.58l14.49-6.26a8.7,8.7,0,0,0,5.07-9.85,129.76,129.76,0,0,1-.77-50,8.75,8.75,0,0,0-5.32-9.68l-14.74-5.88a5.55,5.55,0,0,1-3.12-3,5.72,5.72,0,0,1-.08-4.43l9.62-24.21a5.8,5.8,0,0,1,7.51-3.24l14.74,5.84a8.76,8.76,0,0,0,10.53-3.32,128.7,128.7,0,0,1,34.78-35.92A8.74,8.74,0,0,0,437.43,562l-6.26-14.53a5.73,5.73,0,0,1,3-7.58l23.91-10.32a5.83,5.83,0,0,1,7.58,3l6.31,14.53a8.65,8.65,0,0,0,9.81,5.07,130.57,130.57,0,0,1,50-.69,8.64,8.64,0,0,0,9.67-5.37l5.84-14.75a6,6,0,0,1,7.5-3.23L579,537.77a5.79,5.79,0,0,1,3.24,7.46l-5.89,14.71a8.72,8.72,0,0,0,3.37,10.52,130.09,130.09,0,0,1,35.92,34.86,8.65,8.65,0,0,0,10.61,3.07l14.53-6.26a5.8,5.8,0,0,1,7.54,3L658.63,629a5.78,5.78,0,0,1,.09,4.47,5.64,5.64,0,0,1-3.07,3.11l-14.49,6.31a8.7,8.7,0,0,0-5.12,9.8,129.23,129.23,0,0,1,.81,50,8.66,8.66,0,0,0,5.33,9.68l14.69,5.84a5.75,5.75,0,0,1,3.2,7.5Zm0,0"/></svg>