<svg xmlns="http://www.w3.org/2000/svg" xmlns:xlink="http://www.w3.org/1999/xlink" viewBox="0 0 189.28 47.14"><defs><style>.cls-1{isolation:isolate;}.cls-2{fill:url(#radial-gradient);}.cls-3{fill:#026937;}.cls-4,.cls-5{fill:#54b948;}.cls-4{opacity:0.6;}.cls-4,.cls-5,.cls-6,.cls-7{mix-blend-mode:multiply;}.cls-5{opacity:0.4;}.cls-6{opacity:0.8;fill:url(#radial-gradient-2);}.cls-7{opacity:0.5;fill:url(#linear-gradient);}</style><radialGradient id="radial-gradient" cx="23.59" cy="23.57" r="23.57" gradientUnits="userSpaceOnUse"><stop offset="0" stop-color="#fff"/><stop offset="1" stop-color="#54b948"/></radialGradient><radialGradient id="radial-gradient-2" cx="29.02" cy="29.75" r="19.95" gradientUnits="userSpaceOnUse"><stop offset="0" stop-color="#54b948"/><stop offset="1" stop-color="#00703c"/></radialGradient><linearGradient id="linear-gradient" x1="22.56" y1="41.27" x2="35.48" y2="41.27" gradientUnits="userSpaceOnUse"><stop offset="0" stop-color="#00703c"/><stop offset="1" stop-color="#54b948"/></linearGradient></defs><title>logo</title><g class="cls-1"><g id="Layer_1" data-name="Layer 1"><circle class="cls-2" cx="23.59" cy="23.57" r="23.57"/><path class="cls-3" d="M83.3,19.86A2.43,2.43,0,0,0,81,21.56L75.45,35.72,70,21.64a2.47,2.47,0,0,0-4.83.56,3.8,3.8,0,0,0,.28,1.21l7.08,16.22a3,3,0,0,0,2.78,2.13h0.24a3.08,3.08,0,0,0,2.78-2.13L85.4,23.37a2.93,2.93,0,0,0,.28-1.17A2.32,2.32,0,0,0,83.3,19.86Zm9.24,0a2.41,2.41,0,0,0-2.42,2.46V39.14a2.44,2.44,0,0,0,4.87,0V22.32A2.44,2.44,0,0,0,92.54,19.86Zm17.39,8.94c-2.5-.8-4.79-1.45-4.79-3V25.7c0-1.21,1.09-2.09,3-2.09a11.59,11.59,0,0,1,5,1.45,1.91,1.91,0,0,0,1,.24,2,2,0,0,0,2-2,2.07,2.07,0,0,0-1.17-1.85,14.6,14.6,0,0,0-6.68-1.73c-4.23,0-7.57,2.45-7.57,6.48V26.3c0,4.07,3.5,5.35,6.64,6.24,2.5,0.76,4.75,1.33,4.75,3V35.6c0,1.41-1.21,2.29-3.3,2.29a11.22,11.22,0,0,1-6.12-2.05,2.14,2.14,0,0,0-1-.28,2,2,0,0,0-2,2,1.87,1.87,0,0,0,.92,1.69,14.54,14.54,0,0,0,8.09,2.54c4.43,0,7.89-2.22,7.89-6.68V35C116.53,31.18,113,29.77,109.93,28.8Zm20.89-4.51a2.09,2.09,0,1,0,0-4.19H127V16.48a2.44,2.44,0,0,0-4.87,0v3.62h-0.8a2.09,2.09,0,1,0,0,4.19h0.8V35.48c0,4.67,2.54,6.24,6.12,6.24a9.68,9.68,0,0,0,3.34-.56,2.09,2.09,0,0,0,1.29-1.89,2.05,2.05,0,0,0-2.05-2,11.38,11.38,0,0,1-1.21.12c-1.65,0-2.62-.76-2.62-2.65V24.29h3.82Zm15.3-4.47a18.19,18.19,0,0,0-6.84,1.25A2.12,2.12,0,0,0,137.95,23,2,2,0,0,0,140,25a2.76,2.76,0,0,0,.76-0.12,12.61,12.61,0,0,1,4.71-.84c3.42,0,5.27,1.61,5.27,4.63V29.2a17.74,17.74,0,0,0-5.72-.89c-5.19,0-8.78,2.25-8.78,6.84v0.08c0,4.26,3.54,6.56,7.53,6.56a8.63,8.63,0,0,0,6.92-3.1v0.8a2.2,2.2,0,0,0,2.38,2.05,2.32,2.32,0,0,0,2.37-2.33V28.76c0-2.78-.73-5-2.29-6.56S149.3,19.82,146.12,19.82Zm4.71,13.89c0,2.7-2.45,4.55-5.68,4.55-2.33,0-4.15-1.17-4.15-3.22V35c0-2.21,1.85-3.54,5-3.54a13.46,13.46,0,0,1,4.83.85v1.45Zm20.69-13.89c-2.13,0-4.23,2-5.35,4.67V22.32a2.44,2.44,0,0,0-2.45-2.46,2.41,2.41,0,0,0-2.42,2.46V39.14a2.4,2.4,0,0,0,2.42,2.42,2.43,2.43,0,0,0,2.45-2.42V32.87c0-5,2.38-7.69,5.84-8.29a2.28,2.28,0,0,0,1.93-2.33A2.26,2.26,0,0,0,171.52,19.82Zm20.89,2.38c-1.49-1.53-3.86-2.38-7-2.38a18.2,18.2,0,0,0-6.84,1.25A2.13,2.13,0,0,0,177.19,23a2,2,0,0,0,2.05,2A2.77,2.77,0,0,0,180,24.9a12.62,12.62,0,0,1,4.71-.84c3.42,0,5.27,1.61,5.27,4.63V29.2a17.74,17.74,0,0,0-5.72-.89c-5.19,0-8.78,2.25-8.78,6.84v0.08c0,4.26,3.54,6.56,7.53,6.56A8.63,8.63,0,0,0,190,38.7v0.8a2.2,2.2,0,0,0,2.38,2.05,2.32,2.32,0,0,0,2.37-2.33V28.76C194.7,26,194,23.73,192.41,22.2Zm-2.33,11.51c0,2.7-2.46,4.55-5.68,4.55-2.33,0-4.15-1.17-4.15-3.22V35c0-2.21,1.85-3.54,5-3.54a13.46,13.46,0,0,1,4.83.85v1.45Z" transform="translate(-5.42 -6.56)"/><path class="cls-4" d="M45.74,46.77a23.55,23.55,0,0,0,5.89-9.9,107.86,107.86,0,0,1-26.1-5.44A116.85,116.85,0,0,1,6.42,23.34a23.68,23.68,0,0,0-.54,11.44,132.33,132.33,0,0,0,16.38,6.6A126.7,126.7,0,0,0,45.74,46.77Z" transform="translate(-5.42 -6.56)"/><path class="cls-4" d="M6.4,36.87a23.56,23.56,0,0,0,5.89,9.9,126.68,126.68,0,0,0,23.48-5.39,132.16,132.16,0,0,0,16.38-6.6,23.68,23.68,0,0,0-.54-11.44A116.84,116.84,0,0,1,32.5,31.43,107.87,107.87,0,0,1,6.4,36.87Z" transform="translate(-5.42 -6.56)"/><path class="cls-5" d="M12.71,24.16C18,35.44,24.87,46.06,32,53.52a23.45,23.45,0,0,0,10.7-4.21c-5.82-5-13.5-14.57-20.55-29.6-1.71-3.64-3.14-7.1-4.34-10.37a23.7,23.7,0,0,0-8.33,7.49C10.52,19.29,11.58,21.74,12.71,24.16Z" transform="translate(-5.42 -6.56)"/><path class="cls-5" d="M15.29,49.31A23.45,23.45,0,0,0,26,53.52c7.18-7.46,14-18.08,19.34-29.36,1.13-2.42,2.19-4.87,3.18-7.34a23.71,23.71,0,0,0-8.33-7.49c-1.2,3.27-2.63,6.73-4.34,10.37C28.79,34.74,21.11,44.28,15.29,49.31Z" transform="translate(-5.42 -6.56)"/><path class="cls-6" d="M40.17,9.34c-1.2,3.27-2.63,6.73-4.34,10.37A125,125,0,0,1,29,32.38,125.16,125.16,0,0,1,22.2,19.71c-1.71-3.64-3.14-7.1-4.34-10.37a23.7,23.7,0,0,0-8.33,7.49c1,2.46,2,4.92,3.18,7.33A130.46,130.46,0,0,0,22.56,41.6,97.22,97.22,0,0,0,29,50.16a97.21,97.21,0,0,0,6.46-8.56,130.5,130.5,0,0,0,9.85-17.45c1.13-2.42,2.19-4.87,3.18-7.34A23.71,23.71,0,0,0,40.17,9.34Z" transform="translate(-5.42 -6.56)"/><path class="cls-7" d="M22.56,41.6A97.22,97.22,0,0,0,29,50.16a97.21,97.21,0,0,0,6.46-8.56A92.83,92.83,0,0,1,29,32.38,92.8,92.8,0,0,1,22.56,41.6Z" transform="translate(-5.42 -6.56)"/></g></g></svg>