<svg id="Layer_1" data-name="Layer 1" xmlns="http://www.w3.org/2000/svg" viewBox="0 0 456.06 452"><defs><style>.cls-1{fill:#515251;}</style></defs><title>Availability_icon</title><path class="cls-1" d="M450.15,146.3L354,49.29s41.7-18.72,91.91-26.38c0,0,37.44-4.26,31.49,38.3S460.37,122.47,450.15,146.3Z" transform="translate(-21.97 -22.79)"/><path class="cls-1" d="M443.35,161.62L338.67,57.8S212.72,113.11,171,260.34l19.57,19.57s26.38-40,40-44.25c0,0,11.91-10.21,28.08,5.11,0,0,15.32,12.77,7.66,25.53,0,0-10.21,22.13-44.25,40.85l19.57,20.42S365.9,300.33,443.35,161.62Z" transform="translate(-21.97 -22.79)"/><path class="cls-1" d="M118.26,382l116.59-130.2s7.66-6.81,14.47,0,0,14.47,0,14.47Z" transform="translate(-21.97 -22.79)"/><path class="cls-1" d="M179.54,182.89l-34,73.19S77.42,234.81,30.61,280.76C30.61,280.76,52.74,199.06,179.54,182.89Z" transform="translate(-21.97 -22.79)"/><path class="cls-1" d="M315.52,317.91l-74,34.29S262.9,421,216.39,468.28C216.39,468.28,299,446,315.52,317.91Z" transform="translate(-21.97 -22.79)"/><path class="cls-1" d="M146.35,280.76S66.95,327.57,22,474.79c0,0,113.83-23.83,194.42-120.84l-7.07-6S184.64,388,58.69,441.6c0,0,10.5-59.85,92.19-155.17Z" transform="translate(-21.97 -22.79)"/><polygon class="cls-1" points="143.1 243.79 210.61 312.44 199.83 323.21 132.32 253.43 143.1 243.79"/></svg>