<svg id="Layer_4" data-name="Layer 4" xmlns="http://www.w3.org/2000/svg" viewBox="0 0 88.01 87.23"><defs><style>.cls-1{fill:#515251;}</style></defs><title>development_icon_100x</title><path class="cls-1" d="M88.68,29.84L70.13,11.11A76.79,76.79,0,0,1,87.86,6s7.23-.82,6.08,7.39S90.65,25.24,88.68,29.84Z" transform="translate(-6.05 -6)"/><path class="cls-1" d="M87.37,32.79l-20.2-20A63.57,63.57,0,0,0,34.82,51.84l3.78,3.78s5.09-7.72,7.72-8.54c0,0,2.3-2,5.42,1,0,0,3,2.46,1.48,4.93,0,0-2,4.27-8.54,7.88l3.78,3.94S72.43,59.56,87.37,32.79Z" transform="translate(-6.05 -6)"/><path class="cls-1" d="M24.64,75.33L47.14,50.2A2,2,0,0,1,49.93,53Z" transform="translate(-6.05 -6)"/><path class="cls-1" d="M36.46,36.9L29.89,51S16.75,46.91,7.72,55.78C7.72,55.78,12,40,36.46,36.9Z" transform="translate(-6.05 -6)"/><path class="cls-1" d="M62.7,63L48.42,69.57S52.55,82.85,43.57,92C43.57,92,59.51,87.68,62.7,63Z" transform="translate(-6.05 -6)"/><path class="cls-1" d="M30.06,55.78s-15.32,9-24,37.44c0,0,22-4.6,37.52-23.32l-1.36-1.15s-4.76,7.72-29.07,18.06c0,0,2-11.55,17.79-29.94Z" transform="translate(-6.05 -6)"/><polygon class="cls-1" points="27.61 47.05 40.64 60.29 38.56 62.37 25.53 48.91 27.61 47.05"/></svg>