<svg id="Layer_1" data-name="Layer 1" xmlns="http://www.w3.org/2000/svg" viewBox="0 0 87.07 80.75"><defs><style>.cls-1{fill:#4c4d4f;}.cls-2{fill:#eaeaea;}</style></defs><title>Sclability_icon_100x</title><rect class="cls-1" x="22.57" y="21.59" width="42.28" height="11.14" rx="2.25" ry="2.25"/><rect class="cls-1" x="42.82" y="5.36" width="1.89" height="13.78"/><polygon class="cls-1" points="39.41 7.5 48.12 7.5 43.77 0 39.41 7.5"/><rect class="cls-1" x="42.82" y="61.61" width="1.89" height="13.78"/><polygon class="cls-1" points="39.41 73.24 48.12 73.24 43.77 80.75 39.41 73.24"/><rect class="cls-1" x="80.57" y="43.8" width="1.89" height="13.78" transform="translate(125.52 -40.13) rotate(90)"/><polygon class="cls-1" points="79.57 37.03 79.57 45.73 87.07 41.38 79.57 37.03"/><rect class="cls-1" x="17.99" y="43.8" width="1.89" height="13.78" transform="translate(62.94 22.44) rotate(90)"/><polygon class="cls-1" points="7.5 37.03 7.5 45.73 0 41.38 7.5 37.03"/><rect class="cls-2" x="57.12" y="25.27" width="5.38" height="3.68" rx="1.02" ry="1.02"/><rect class="cls-1" x="22.57" y="35.18" width="42.28" height="11.14" rx="2.25" ry="2.25"/><rect class="cls-2" x="57.12" y="38.86" width="5.38" height="3.68" rx="1.02" ry="1.02"/><rect class="cls-1" x="22.57" y="48.77" width="42.28" height="11.14" rx="2.25" ry="2.25"/><rect class="cls-2" x="57.12" y="52.45" width="5.38" height="3.68" rx="1.02" ry="1.02"/></svg>