<svg id="Layer_4" data-name="Layer 4" xmlns="http://www.w3.org/2000/svg" viewBox="0 0 360.3 334.13"><defs><style>.cls-1{fill:#4c4d4f;}.cls-2{fill:#eaeaea;}</style></defs><title>Availability_icon</title><rect class="cls-1" x="92.66" y="89.34" width="174.97" height="46.09" rx="5.29" ry="5.29"/><rect class="cls-1" x="92.66" y="144.02" width="174.97" height="46.09" rx="5.29" ry="5.29"/><rect class="cls-1" x="92.66" y="198.7" width="174.97" height="46.09" rx="5.29" ry="5.29"/><rect class="cls-1" x="177.02" y="22.16" width="7.81" height="57.02"/><polygon class="cls-1" points="163.26 31.05 199.29 31.05 181.27 0 163.26 31.05"/><rect class="cls-1" x="177.02" y="254.94" width="7.81" height="57.02"/><polygon class="cls-1" points="163.26 303.08 199.29 303.08 181.27 334.13 163.26 303.08"/><rect class="cls-1" x="376.23" y="220.45" width="7.81" height="57.02" transform="translate(558.59 -214.44) rotate(90)"/><polygon class="cls-1" points="329.25 148.03 329.25 184.06 360.3 166.04 329.25 148.03"/><rect class="cls-1" x="117.29" y="221.48" width="7.81" height="57.02" transform="translate(300.67 45.53) rotate(90)"/><polygon class="cls-1" points="31.05 149.05 31.05 185.08 0 167.06 31.05 149.05"/><rect class="cls-2" x="235.61" y="104.57" width="22.26" height="15.23" rx="3.89" ry="3.89"/><rect class="cls-2" x="235.61" y="159.35" width="22.26" height="15.23" rx="3.89" ry="3.89"/><rect class="cls-2" x="235.61" y="214.13" width="22.26" height="15.23" rx="3.89" ry="3.89"/></svg>