<?xml version="1.0" encoding="utf-8"?>
<!-- Generator: Adobe Illustrator 19.2.0, SVG Export Plug-In . SVG Version: 6.00 Build 0)  -->
<svg version="1.1" id="Layer_3" xmlns="http://www.w3.org/2000/svg" xmlns:xlink="http://www.w3.org/1999/xlink" x="0px" y="0px"
	 viewBox="0 0 91.2 77.3" style="enable-background:new 0 0 91.2 77.3;" xml:space="preserve">
<style type="text/css">
	.st0{display:none;fill:#515251;}
	.st1{display:none;fill:#727373;}
	.st2{display:none;fill:#FFFFFF;}
	.st3{display:none;fill:#D4EDF1;}
	.st4{fill:#515252;}
	.st5{fill:#FFFFFF;}
	.st6{fill:#4D4C4D;}
	.st7{fill:#D4EDF0;}
</style>
<title>Security_icon_100x</title>
<circle class="st0" cx="19.7" cy="47.5" r="18.7"/>
<circle class="st0" cx="71.7" cy="45.7" r="20.5"/>
<circle class="st0" cx="66.4" cy="22.6" r="7.3"/>
<circle class="st0" cx="40.1" cy="26" r="24"/>
<rect x="19.7" y="45.7" class="st0" width="52" height="20.5"/>
<path class="st1" d="M23.1,34.2c0,0,13.8-1.9,23.7-11.6c6.4,5.9,14.4,9.9,23,11.5c0,0,2.8,32.9-23,45.1
	C46.8,79.3,23.5,71.9,23.1,34.2z"/>
<path class="st2" d="M26.9,36.9c0,0,11.6-1.6,19.8-9.7c5.4,5,12,8.3,19.2,9.7c0,0,2.3,27.5-19.2,37.7C46.7,74.6,27.3,68.5,26.9,36.9
	z"/>
<path class="st3" d="M30.1,39.2c0,0,9.7-1.3,16.6-8.1c4.5,4.1,10.1,6.9,16.1,8.1c0,0,2,23-16.1,31.5C46.7,70.7,30.4,65.6,30.1,39.2z
	"/>
<circle class="st4" cx="17.9" cy="46.8" r="16.9"/>
<circle class="st4" cx="69" cy="43.1" r="20.5"/>
<circle class="st4" cx="21.3" cy="28.5" r="13.2"/>
<circle class="st4" cx="50.3" cy="28" r="24"/>
<rect x="17.4" y="43.1" class="st4" width="51.6" height="20.5"/>
<path class="st4" d="M50.1,43c0,0,16.4-7.3,34.5,0c0,0,4.3,26.9-16.7,31.6C67.9,74.6,49,73.1,50.1,43z"/>
<path class="st5" d="M52.6,44.4c0,0,14.3-6.3,30.1,0c0,0,3.8,23.4-14.5,27.5C68.1,71.9,51.7,70.6,52.6,44.4z"/>
<path class="st6" d="M54.8,46.3c0,0,12.2-5.4,25.5,0c0,0,3.2,19.9-12.4,23.4C68,69.7,54.1,68.5,54.8,46.3z"/>
<path class="st7" d="M67.1,45.7v10.8h-9.6c0,0-1.1-3.9-0.8-8.8C56.7,47.7,58.8,46.3,67.1,45.7z"/>
<path class="st7" d="M67.1,56.4v10.8c0,0,9-2,10.4-10.8H67.1z"/>
</svg>
