<svg xmlns="http://www.w3.org/2000/svg" viewBox="0 0 100 100"><defs><style>.a{fill:none;stroke:#fff;stroke-miterlimit:10;}</style></defs><title>asset_management-01</title><path class="a" d="M44.27,8.72c-8.54,0-16.28,1.71-22,4.58s-9.67,7-9.67,12v48.3c0,5,3.94,9.15,9.67,12s13.48,4.58,22,4.58a52.57,52.57,0,0,0,19.82-3.58A16.6,16.6,0,1,0,76,57.1V25.32c0-5-3.94-9.15-9.68-12s-13.48-4.58-22-4.58Zm0,3c8.13,0,15.48,1.67,20.67,4.26s8,6,8,9.32-2.82,6.73-8,9.32S52.4,38.91,44.27,38.91,28.79,37.24,23.6,34.65s-8-6-8-9.32,2.82-6.73,8-9.32,12.54-4.26,20.67-4.26Zm0,2.26c-7.82,0-14.88,1.63-19.66,4s-6.75,5.12-6.75,7.3a.75.75,0,0,0,1.51,0v0c0-1.15,1.42-3.7,5.92-5.95s11.37-3.86,19-3.86a.75.75,0,0,0,0-1.51ZM15.59,32.51a22.4,22.4,0,0,0,6.66,4.84c5.74,2.87,13.48,4.58,22,4.58s16.28-1.71,22-4.58a22.43,22.43,0,0,0,6.66-4.84v8.91c0,3.35-2.82,6.73-8,9.32S52.4,55,44.27,55,28.79,53.34,23.6,50.75s-8-6-8-9.32Zm0,16.1a22.37,22.37,0,0,0,6.66,4.84C28,56.31,35.73,58,44.27,58s16.28-1.71,22-4.58a22.38,22.38,0,0,0,6.66-4.84v8.48a16.64,16.64,0,0,0-14.6,12.23,53.8,53.8,0,0,1-14.07,1.79c-8.13,0-15.48-1.67-20.67-4.26s-8-6-8-9.32ZM74.38,60A13.58,13.58,0,1,1,60.79,73.62,13.56,13.56,0,0,1,74.38,60ZM73,61.38l-.2,0A14.24,14.24,0,0,0,61.92,73.29a.76.76,0,0,0,1.49.24.22.22,0,0,0,0,0,12.72,12.72,0,0,1,9.7-10.63A.75.75,0,0,0,73,61.38Zm.75,3.18h0a.91.91,0,0,0-.85.6l-.5,1.4a7.37,7.37,0,0,0-1.56.65l-1.35-.63a.91.91,0,0,0-1,.18l-.92.92a.9.9,0,0,0-.18,1L68,70a7.34,7.34,0,0,0-.65,1.57l-1.4.5a.91.91,0,0,0-.6.85v1.31a.91.91,0,0,0,.6.85l1.4.5A7.29,7.29,0,0,0,68,77.19l-.63,1.35a.9.9,0,0,0,.18,1l.92.92a.91.91,0,0,0,1,.18L70.8,80a7.33,7.33,0,0,0,1.57.65l.5,1.4a.91.91,0,0,0,.85.6H75a.91.91,0,0,0,.85-.6l.5-1.4A7.27,7.27,0,0,0,77.94,80l1.35.63a.9.9,0,0,0,1-.18l.92-.92a.91.91,0,0,0,.18-1l-.63-1.34a7.33,7.33,0,0,0,.65-1.57l1.4-.5a.91.91,0,0,0,.6-.85V73a.9.9,0,0,0-.6-.85l-1.4-.51a7.39,7.39,0,0,0-.65-1.56l.64-1.34a.9.9,0,0,0-.18-1l-.92-.92a.9.9,0,0,0-1-.18l-1.34.63a7.24,7.24,0,0,0-1.57-.65l-.5-1.4a.9.9,0,0,0-.85-.6H73.72Zm-58.13.14a22.37,22.37,0,0,0,6.66,4.84c5.74,2.87,13.48,4.58,22,4.58a57.56,57.56,0,0,0,13.54-1.56c0,.35,0,.7,0,1.06a16.53,16.53,0,0,0,3.93,10.71A51.07,51.07,0,0,1,44.27,87.2c-8.13,0-15.48-1.67-20.67-4.26s-8-6-8-9.32ZM74.38,70a3.62,3.62,0,1,1-3.62,3.62A3.62,3.62,0,0,1,74.38,70Zm0,0"/></svg>