<svg xmlns="http://www.w3.org/2000/svg" viewBox="0 0 100 100"><defs><style>.a{fill:none;stroke:#4c4e50;stroke-miterlimit:2.61;stroke-width:0.75px;}</style></defs><title>complexity-icon</title><path class="a" d="M89.2,58.44a39.73,39.73,0,1,1,.44-15.29l-4,.67a35.69,35.69,0,1,0-.39,13.73Z"/><path class="a" d="M23.14,55.84a27.78,27.78,0,0,0,3.15,8L23,66.14a32,32,0,0,1-3.77-9.41l4-.89Zm6.34,12.38-3.35,2.32a32,32,0,1,0,44.06-46l-2.26,3.4a27.95,27.95,0,1,1-38.45,40.3ZM63.4,24.94A27.95,27.95,0,0,0,22.84,45.08l-4-.67A32,32,0,0,1,65.67,21.54Z"/><path class="a" d="M73.79,54.88a23.59,23.59,0,1,1,.26-9.09l-4,.67A19.55,19.55,0,1,0,69.83,54Z"/><path class="a" d="M39.62,52.14a11.18,11.18,0,1,0-.12-4.3l-4-.67A15.23,15.23,0,1,1,35.67,53Z"/><circle class="a" cx="50.62" cy="49.68" r="2.71"/></svg>