<svg xmlns="http://www.w3.org/2000/svg" viewBox="0 0 100 100"><defs><style>.a{fill:#007035;}</style></defs><title>configuration_management</title><path class="a" d="M85.74,53.89l-2-.78a35.3,35.3,0,0,0-.15-10.32l2-.86a5.6,5.6,0,0,0,2.93-7.39L86,28.75a5.62,5.62,0,0,0-5.16-3.4,5.51,5.51,0,0,0-2.23.47l-2,.85a35.17,35.17,0,0,0-7.41-7.19l.8-2a5.64,5.64,0,0,0-3.15-7.3L61,7.84a5.72,5.72,0,0,0-2.06-.39A5.63,5.63,0,0,0,53.69,11l-.78,2a36,36,0,0,0-10.32.15l-.85-2a5.72,5.72,0,0,0-7.39-2.93l-5.79,2.5a5.63,5.63,0,0,0-2.94,7.39l.85,2a35.57,35.57,0,0,0-7.18,7.41l-2-.8a5.48,5.48,0,0,0-2.07-.4A5.59,5.59,0,0,0,10,29.88L7.65,35.74A5.63,5.63,0,0,0,10.8,43l2,.78a35.31,35.31,0,0,0,.15,10.33L11,55A5.63,5.63,0,0,0,8,62.4l2.5,5.8a5.64,5.64,0,0,0,5.16,3.39,5.51,5.51,0,0,0,2.23-.46l2-.85a35.49,35.49,0,0,0,7.4,7.21l-.79,2a5.63,5.63,0,0,0,3.16,7.31l5.86,2.33a5.63,5.63,0,0,0,7.3-3.16l.8-2A35.57,35.57,0,0,0,54,83.8l.86,2A5.62,5.62,0,0,0,62.2,88.7L68,86.2a5.59,5.59,0,0,0,3-7.27l6.61,6.61a2.12,2.12,0,0,0,3,0l5.77-5.77a2.12,2.12,0,0,0,0-3L80,70.44a5.74,5.74,0,0,0,1.32.17,5.57,5.57,0,0,0,5.23-3.55l2.33-5.85a5.61,5.61,0,0,0-.06-4.33,5.55,5.55,0,0,0-3.09-3ZM79.08,81l-8-8h0L59.87,61.84a0,0,0,0,0,0,0l-3.11-3.11,1.37-1.37a0,0,0,0,1,0,0s0,0,0,0l1.37-1.38L62.4,58.8a0,0,0,0,1,0,0L73.7,70.1h0l8.16,8.16ZM63.22,53.64l-1.79-1.78a13.3,13.3,0,0,0-3.29-13.25,13.11,13.11,0,0,0-9.33-3.86,13.26,13.26,0,0,0-5.28,1.09,2.11,2.11,0,0,0-.66,3.43l5.8,5.81-2.79,2.79-5.8-5.8a2.15,2.15,0,0,0-1.9-.59,2.13,2.13,0,0,0-1.54,1.24,13.24,13.24,0,0,0,16,17.91l2.23,2.24a16.1,16.1,0,1,1,8.32-9.23ZM48.78,57a9,9,0,0,1-9-9.25l4.62,4.63a2.17,2.17,0,0,0,3,0l5.78-5.78a2.11,2.11,0,0,0,0-3L48.56,39a8.8,8.8,0,0,1,6.59,2.62,9,9,0,0,1,0,12.73l0,0A8.94,8.94,0,0,1,48.78,57ZM85,59.65l-2.33,5.86a1.39,1.39,0,0,1-1.81.77l-3.57-1.42a2.12,2.12,0,0,0-2.3.5L66.48,56.9A20,20,0,1,0,58.06,66l6.86,6.87,1.45,1.44-.09.07A2.11,2.11,0,0,0,65.54,77l1.52,3.51a1.4,1.4,0,0,1,0,1.08,1.34,1.34,0,0,1-.74.75l-5.79,2.51a1.42,1.42,0,0,1-1.84-.72l-1.51-3.52a2.13,2.13,0,0,0-2.39-1.23,31.69,31.69,0,0,1-12.12.16,2.08,2.08,0,0,0-2.34,1.3l-1.42,3.56a1.41,1.41,0,0,1-1.82.78l-5.85-2.32a1.37,1.37,0,0,1-.77-.74,1.4,1.4,0,0,1,0-1.08l1.4-3.54a2.11,2.11,0,0,0-.81-2.55,31.17,31.17,0,0,1-8.69-8.44,2.12,2.12,0,0,0-2.56-.74l-3.54,1.52a1.42,1.42,0,0,1-1.83-.72l-2.5-5.8a1.38,1.38,0,0,1,.73-1.84l3.51-1.52A2.11,2.11,0,0,0,17.41,55a31.44,31.44,0,0,1-.19-12.11,2.12,2.12,0,0,0-1.29-2.34L12.36,39.1a1.34,1.34,0,0,1-.76-.73,1.39,1.39,0,0,1,0-1.07l2.33-5.86a1.4,1.4,0,0,1,1.82-.78l3.57,1.41a2.12,2.12,0,0,0,2.55-.8,31.18,31.18,0,0,1,8.43-8.7A2.12,2.12,0,0,0,31,20l-1.52-3.52a1.39,1.39,0,0,1,.72-1.84L36,12.12a1.41,1.41,0,0,1,1.84.72l1.53,3.52a2.1,2.1,0,0,0,2.38,1.23,31.63,31.63,0,0,1,12.11-.17,2.09,2.09,0,0,0,2.34-1.3l1.41-3.57a1.45,1.45,0,0,1,1.82-.78l5.88,2.33a1.4,1.4,0,0,1,.78,1.81l-1.43,3.56A2.11,2.11,0,0,0,65.49,22a31.52,31.52,0,0,1,8.7,8.45,2.09,2.09,0,0,0,2.57.74l3.52-1.52a1.4,1.4,0,0,1,1.83.73l2.5,5.78a1.4,1.4,0,0,1,0,1.08,1.37,1.37,0,0,1-.74.75l-3.51,1.53a2.11,2.11,0,0,0-1.24,2.37,31.31,31.31,0,0,1,.2,12.12,2.1,2.1,0,0,0,1.29,2.34l3.56,1.41A1.39,1.39,0,0,1,85,59.65Zm0,0"/></svg>