<svg xmlns="http://www.w3.org/2000/svg" viewBox="0 0 100 100"><defs><style>.a{fill:none;stroke:#4c4d4f;stroke-miterlimit:10;stroke-width:0.75px;}</style></defs><title>digital-icon</title><path class="a" d="M70.58,45.23a91.66,91.66,0,0,0,3.9-14.29A91.66,91.66,0,0,0,59.69,30q-2.66.06-5.26.27,1.82,1.84,3.51,3.8h0a4.24,4.24,0,0,1,5,6.44h0a80.43,80.43,0,0,1,5.71,9.54Q69.68,47.7,70.58,45.23Z"/><path class="a" d="M16.12,29.6a39.51,39.51,0,0,0-5.36,15.62,83.2,83.2,0,0,1,7.45-5.3A88.21,88.21,0,0,1,16.12,29.6Z"/><path class="a" d="M22.73,37.26h0a4.23,4.23,0,0,1,4.17-5,4.23,4.23,0,0,1,3.23,1.5h0a79.37,79.37,0,0,1,19.11-5.22A83.11,83.11,0,0,0,30,15.8,40,40,0,0,0,18.12,26.58a88.51,88.51,0,0,0,2.21,12Q21.52,37.92,22.73,37.26Z"/><path class="a" d="M85,30.59a39.94,39.94,0,0,0-6.84-8.93c-.19,2.19-.49,4.65-.93,7.32C80.11,29.46,82.72,30,85,30.59Z"/><path class="a" d="M59.74,27.66a94,94,0,0,1,15.15,1c.55-3.38.87-6.42,1-9a39.83,39.83,0,0,0-43.47-5.2A84.84,84.84,0,0,1,52.22,28.14Q55.93,27.74,59.74,27.66Z"/><path class="a" d="M26.9,40.72a4.22,4.22,0,0,1-3.15-1.41h0q-1.41.77-2.79,1.6a66.62,66.62,0,0,0,10.3,21.26,59.22,59.22,0,0,0,17.3,15.59h0A75.83,75.83,0,0,0,67.4,52.83h0A78.47,78.47,0,0,0,61.12,42h0a4.24,4.24,0,0,1-5-6.45h0q-2.21-2.55-4.65-4.91a76.91,76.91,0,0,0-20.39,5.23h0a4.21,4.21,0,0,1-4.18,4.9Z"/><path class="a" d="M86.42,33.4h0Q85.76,32,85,30.59l1.44,2.82-.09,0a97.35,97.35,0,0,0-9.51-2.08,94,94,0,0,1-4,14.65Q71.55,49.48,70,52.83q1.55,3.35,2.84,6.89A95.66,95.66,0,0,1,77.57,79a39.83,39.83,0,0,0,8.85-45.6Z"/><path class="a" d="M68.65,55.59A78.93,78.93,0,0,1,53.13,76.66q-1.21,1.17-2.48,2.3,1,.57,2.11,1.11a4.24,4.24,0,0,1,7.65,3.32h0q3.59,1.33,7.48,2.36a39.84,39.84,0,0,0,7.56-4.87,94,94,0,0,0-4.86-20.44Q69.68,58,68.65,55.59Z"/><path class="a" d="M38.27,88l-2.83-1Q36.83,87.56,38.27,88Z"/><path class="a" d="M59.23,85.48a4.24,4.24,0,0,1-7.21-3s0-.06,0-.09h0q-1.69-.84-3.3-1.75A84,84,0,0,1,38.27,88a40,40,0,0,0,26.2-.77q-2.69-.81-5.24-1.76Z"/><path class="a" d="M29.35,63.56A68.56,68.56,0,0,1,18.85,42.21,81.48,81.48,0,0,0,10.5,48.4q0,.82,0,1.66A39.82,39.82,0,0,0,35.43,87a81.88,81.88,0,0,0,11.2-7.64A61.43,61.43,0,0,1,29.35,63.56Z"/></svg>