<svg xmlns="http://www.w3.org/2000/svg" viewBox="0 0 640 214"><defs><style>.a{fill:#fff;}.b{fill:#54b948;}.c,.d{font-size:14px;fill:#231f20;}.c{font-family:OpenSans-Italic, Open Sans;font-style:italic;}.d{font-family:OpenSans, Open Sans;}.e{font-family:OpenSans-Semibold, Open Sans;font-weight:700;}.f{font-size:12px;}</style></defs><title>greenpages-quote</title><rect class="a" x="-2" y="-1" width="644" height="219"/><path class="b" d="M554.11,121.2a.73.73,0,0,1,.74-.76.77.77,0,1,1-.74.76Zm-2.22-2.09a1.93,1.93,0,0,0,0-.32,1,1,0,0,0-1-.83c-.76,0-1.19.68-1.19,1.55s.43,1.5,1.18,1.5a1,1,0,0,0,1-.84,1.34,1.34,0,0,0,0-.35v-.71Zm1.19-4.13v5.55c0,.49,0,1,0,1.33h-1.06l-.06-.75h0a1.68,1.68,0,0,1-1.53.85,2.16,2.16,0,0,1-2-2.41,2.24,2.24,0,0,1,2.11-2.52,1.49,1.49,0,0,1,1.32.61h0V115Zm-5.64,5.46c0,.56,0,1,0,1.42h-1l-.06-.71h0a1.72,1.72,0,0,1-1.52.81c-.85,0-1.63-.51-1.63-2v-2.77h1.19v2.57c0,.79.26,1.29.89,1.29a1,1,0,0,0,.91-.64.82.82,0,0,0,.07-.37v-2.85h1.19v3.3Zm-8.75-.94c0,.91.46,1.6,1.17,1.6s1.15-.66,1.15-1.61c0-.74-.32-1.59-1.14-1.59s-1.18.82-1.18,1.6Zm3.55,0a2.33,2.33,0,0,1-2.43,2.5,2.28,2.28,0,0,1-2.36-2.43A2.33,2.33,0,0,1,539.9,117a2.26,2.26,0,0,1,2.35,2.42Zm-7-4.47h1.19v6.88h-1.19V115Zm-.94,6.69a4.41,4.41,0,0,1-1.69.28,3.08,3.08,0,0,1-3.33-3.29,3.29,3.29,0,0,1,3.49-3.45,3.72,3.72,0,0,1,1.58.29l-.25,1a3.19,3.19,0,0,0-1.28-.26,2.17,2.17,0,0,0-2.29,2.4,2.14,2.14,0,0,0,2.28,2.36,3.55,3.55,0,0,0,1.3-.23l.19.94Zm-9.16-.48a.74.74,0,1,1,.72.76.72.72,0,0,1-.72-.76ZM522.93,115h1.19v6.88h-1.19V115Zm-2.42,4.57c-.84,0-1.64.17-1.64.88a.62.62,0,0,0,.68.68,1,1,0,0,0,.94-.65.82.82,0,0,0,0-.26v-.65Zm1.16,1.17a6.63,6.63,0,0,0,.07,1.14h-1.07l-.09-.53h0a1.72,1.72,0,0,1-1.4.63,1.39,1.39,0,0,1-1.48-1.4c0-1.18,1.05-1.79,2.8-1.78v-.07c0-.31-.13-.83-1-.83a2.54,2.54,0,0,0-1.27.35l-.23-.77a3.35,3.35,0,0,1,1.71-.42,1.76,1.76,0,0,1,1.95,2v1.69Zm-4.94-.28c0,.56,0,1,0,1.42h-1l-.06-.71h0a1.72,1.72,0,0,1-1.52.81c-.85,0-1.63-.51-1.63-2v-2.77h1.19v2.57c0,.79.25,1.29.88,1.29a1,1,0,0,0,.91-.64.83.83,0,0,0,.07-.37v-2.85h1.19v3.3Zm-6.25-4.51v1.21h1.13v.9h-1.13v2.08c0,.58.15.87.6.87a1.77,1.77,0,0,0,.47,0l0,.9a2.56,2.56,0,0,1-.86.12,1.38,1.38,0,0,1-1-.38,1.9,1.9,0,0,1-.38-1.33V118h-.67v-.9h.67v-.88l1.18-.33Zm-5,2.73c0-.64,0-1.11,0-1.52h1l.05.9h0a1.4,1.4,0,0,1,1.29-1,1,1,0,0,1,.28,0v1.11a2,2,0,0,0-.35,0,1.05,1.05,0,0,0-1.07.9,2.2,2.2,0,0,0,0,.35v2.45h-1.19v-3.2Zm-2.48,3.2v-4.72h1.19v4.72Zm1.27-6a.67.67,0,1,1-.67-.65.64.64,0,0,1,.67.65Zm-5.33,6-2.11-6.53h1.29l.9,3c.25.82.47,1.58.64,2.37h0c.18-.78.42-1.57.67-2.36l.95-3h1.27l-2.26,6.53Zm-5.62-.66a.73.73,0,0,1,.74-.76.77.77,0,1,1-.74.76ZM491,115h1.19v6.88H491V115Zm-2.42,4.57c-.84,0-1.65.17-1.65.88a.62.62,0,0,0,.68.68,1,1,0,0,0,.94-.65.79.79,0,0,0,0-.26v-.65Zm1.16,1.17a6.17,6.17,0,0,0,.08,1.14h-1.08l-.08-.53h0a1.72,1.72,0,0,1-1.4.63,1.4,1.4,0,0,1-1.48-1.4c0-1.18,1.06-1.79,2.8-1.78v-.07c0-.31-.13-.83-1-.83a2.53,2.53,0,0,0-1.27.35l-.23-.77a3.35,3.35,0,0,1,1.71-.42,1.77,1.77,0,0,1,1.94,2v1.69Zm-4.54,1a3.35,3.35,0,0,1-1.33.25,2.27,2.27,0,0,1-2.43-2.41,2.43,2.43,0,0,1,2.62-2.5,3.25,3.25,0,0,1,1.15.21l-.21.9a2,2,0,0,0-.9-.18,1.53,1.53,0,0,0,0,3,2.36,2.36,0,0,0,.94-.18l.17.88Zm-5.94.15v-4.72h1.19v4.72Zm1.27-6a.64.64,0,0,1-.68.64.65.65,0,1,1,.68-.64Zm-5.35,4.92a2.58,2.58,0,0,0,1.2.35c.52,0,.76-.22.76-.53s-.19-.47-.78-.68c-.92-.31-1.3-.82-1.3-1.38,0-.83.69-1.47,1.78-1.47a2.73,2.73,0,0,1,1.26.28l-.24.83a2.1,2.1,0,0,0-1-.27c-.43,0-.66.22-.66.51s.22.43.82.66c.86.3,1.25.74,1.26,1.43,0,.86-.67,1.48-1.92,1.48a3,3,0,0,1-1.43-.33l.24-.87Zm-3.92-3.61.84,2.53c.1.29.2.65.27.91h0c.07-.26.16-.62.25-.92l.74-2.52h1.27l-1.18,3.22a7.15,7.15,0,0,1-1.64,3,2.53,2.53,0,0,1-1.25.6l-.27-1a2,2,0,0,0,.69-.32,2.06,2.06,0,0,0,.66-.75.44.44,0,0,0,.07-.21.56.56,0,0,0-.06-.23L470,117.14ZM465.15,115h1.19v2.8h0a1.56,1.56,0,0,1,.59-.53,1.66,1.66,0,0,1,.82-.21c.8,0,1.65.53,1.65,2v2.78h-1.19v-2.65c0-.68-.25-1.2-.91-1.2a1,1,0,0,0-.93.67,1.18,1.18,0,0,0,0,.36v2.83h-1.19V115ZM461,118.45a1.87,1.87,0,0,0,.58.06c.89,0,1.43-.45,1.43-1.2s-.5-1.1-1.33-1.1a3.42,3.42,0,0,0-.69.06v2.19Zm-1.18-3a10.88,10.88,0,0,1,1.82-.14,2.92,2.92,0,0,1,1.92.54,1.84,1.84,0,0,1,.64,1.44,2,2,0,0,1-.55,1.47,2.91,2.91,0,0,1-2.06.71,2.48,2.48,0,0,1-.58-.05v2.47h-1.18v-6.44Z"/><path d="M558.51,86h.23c.27,0,.49-.09.49-.31s-.14-.32-.46-.32a1.05,1.05,0,0,0-.27,0V86Zm0,1.19H558V85.08a5.47,5.47,0,0,1,.81-.07,1.14,1.14,0,0,1,.72.17.53.53,0,0,1-.22,1v0c.21.06.32.23.37.52a2.18,2.18,0,0,0,.15.51h-.51a1.83,1.83,0,0,1-.17-.51c0-.22-.17-.32-.43-.32h-.23v.84Zm-1.3-1.1a1.65,1.65,0,0,0,1.65,1.69,1.62,1.62,0,0,0,1.61-1.68,1.63,1.63,0,1,0-3.26,0Zm3.8,0A2.17,2.17,0,1,1,558.85,84,2.13,2.13,0,0,1,561,86.09Z"/><path d="M551.92,107.67a3,3,0,0,0,1.35.37c.47,0,.67-.15.67-.41s-.15-.39-.73-.59c-1.05-.34-1.46-.92-1.44-1.51,0-.95.8-1.66,2.05-1.66a3.32,3.32,0,0,1,1.41.3l-.27,1.08a2.58,2.58,0,0,0-1.09-.28c-.39,0-.6.15-.6.4s.2.37.81.59c1,.32,1.35.81,1.36,1.54,0,.95-.73,1.64-2.17,1.64a3.58,3.58,0,0,1-1.63-.36l.28-1.11ZM546,105.6c0-.63,0-1.15,0-1.61h1.36l.07.7h0a1.82,1.82,0,0,1,1.56-.82c1,0,1.8.69,1.8,2.18v3h-1.57v-2.79c0-.65-.23-1.1-.8-1.1a.86.86,0,0,0-.8.59,1.15,1.15,0,0,0-.05.4V109H546V105.6ZM542.6,108c.62,0,1-.6,1-1.51,0-.74-.29-1.5-1-1.5s-1,.76-1,1.51.36,1.5,1,1.5Zm0,1.13a2.47,2.47,0,0,1-2.61-2.6,2.52,2.52,0,0,1,2.7-2.67,2.45,2.45,0,0,1,2.57,2.59,2.52,2.52,0,0,1-2.65,2.68Zm-5-.11v-5h1.57v5Zm.78-5.71a.82.82,0,0,1-.86-.83.88.88,0,1,1,.88.83Zm-2.65-.71V104h1.12v1.15H535.7V107c0,.61.15.89.62.89a2,2,0,0,0,.46,0V109a3.38,3.38,0,0,1-1,.13,1.65,1.65,0,0,1-1.18-.43,2.07,2.07,0,0,1-.43-1.5v-2.07h-.67V104h.67V103l1.53-.42Zm-2.85,4.8c0,.66,0,1.2,0,1.62h-1.35l-.08-.71h0a1.8,1.8,0,0,1-1.57.82c-1,0-1.78-.64-1.78-2.2v-3h1.57v2.71c0,.73.24,1.18.79,1.18a.83.83,0,0,0,.78-.55.86.86,0,0,0,.06-.34v-3h1.57v3.43Zm-7.43-5.71H527V109h-1.57v-7.32ZM522,108c.62,0,1-.6,1-1.51,0-.74-.29-1.5-1-1.5s-1,.76-1,1.51.36,1.5,1,1.5Zm0,1.13a2.47,2.47,0,0,1-2.61-2.6,2.52,2.52,0,0,1,2.7-2.67,2.45,2.45,0,0,1,2.57,2.59,2.52,2.52,0,0,1-2.65,2.68Zm-7.68-1.72a4,4,0,0,0,1.75.43c.72,0,1.1-.3,1.1-.76s-.33-.69-1.17-1c-1.15-.41-1.92-1.05-1.92-2.07,0-1.19,1-2.09,2.63-2.09a4,4,0,0,1,1.77.35l-.35,1.26a3.3,3.3,0,0,0-1.44-.33c-.68,0-1,.32-1,.67s.39.64,1.29,1c1.23.46,1.79,1.09,1.79,2.08,0,1.17-.88,2.15-2.79,2.15a4.51,4.51,0,0,1-2-.43l.32-1.29Zm-6.1-3.43.76,2.47c.08.3.18.67.25.94h0c.07-.27.15-.65.22-.94l.62-2.47h1.68l-1.18,3.32c-.72,2-1.21,2.79-1.78,3.3a2.68,2.68,0,0,1-1.52.69l-.33-1.32a2.43,2.43,0,0,0,.68-.27,1.79,1.79,0,0,0,.65-.63.42.42,0,0,0,.08-.23.76.76,0,0,0-.06-.25L506.43,104ZM504.34,106a1.78,1.78,0,0,0,0-.29.86.86,0,0,0-.85-.69c-.57,0-1,.52-1,1.43,0,.76.37,1.34,1,1.34a.86.86,0,0,0,.84-.63,1.75,1.75,0,0,0,0-.43V106Zm1.57,2.25a2.87,2.87,0,0,1-.78,2.27,3.06,3.06,0,0,1-2,.61,4,4,0,0,1-1.81-.38l.31-1.2A3.09,3.09,0,0,0,503,110a1.2,1.2,0,0,0,1.32-1.33v-.32h0A1.62,1.62,0,0,1,503,109a2.21,2.21,0,0,1-2.13-2.46,2.41,2.41,0,0,1,2.28-2.66,1.52,1.52,0,0,1,1.39.71h0l.05-.6h1.36c0,.33,0,.75,0,1.5v2.81Zm-8.25-.28c.62,0,1-.6,1-1.51,0-.74-.29-1.5-1-1.5s-1,.76-1,1.51.36,1.5,1,1.5Zm0,1.13a2.47,2.47,0,0,1-2.61-2.6,2.52,2.52,0,0,1,2.7-2.67,2.45,2.45,0,0,1,2.56,2.59,2.52,2.52,0,0,1-2.64,2.68Zm-5-7.43h1.57V109h-1.57v-7.32ZM489.19,108c.62,0,1-.6,1-1.51,0-.74-.29-1.5-1-1.5s-1,.76-1,1.51.36,1.5,1,1.5Zm0,1.13a2.47,2.47,0,0,1-2.61-2.6,2.52,2.52,0,0,1,2.7-2.67,2.45,2.45,0,0,1,2.57,2.59,2.53,2.53,0,0,1-2.65,2.68Zm-8.21-3.55c0-.63,0-1.15,0-1.61h1.36l.07.7h0a1.81,1.81,0,0,1,1.56-.82c1,0,1.8.69,1.8,2.18v3h-1.57v-2.79c0-.65-.23-1.1-.8-1.1a.86.86,0,0,0-.8.59,1.16,1.16,0,0,0-.05.4V109h-1.57V105.6Zm-5.89-3.89h1.57v2.89h0a1.68,1.68,0,0,1,.62-.53,1.79,1.79,0,0,1,.82-.2c1,0,1.76.69,1.76,2.22V109h-1.57v-2.78c0-.66-.23-1.11-.82-1.11a.82.82,0,0,0-.78.56.93.93,0,0,0-.05.34v3h-1.57v-7.32Zm-.71,7.2a3.56,3.56,0,0,1-1.4.24,2.45,2.45,0,0,1-2.67-2.59,2.63,2.63,0,0,1,2.89-2.68,3.64,3.64,0,0,1,1.2.2l-.25,1.17a2.16,2.16,0,0,0-.88-.15,1.31,1.31,0,0,0-1.35,1.41,1.32,1.32,0,0,0,1.38,1.43,2.27,2.27,0,0,0,.9-.17l.19,1.15Zm-6-3a.92.92,0,0,0-.88-1,1,1,0,0,0-1,1ZM466.48,107c.05.66.69,1,1.42,1a4.22,4.22,0,0,0,1.39-.22l.21,1.06a4.71,4.71,0,0,1-1.83.33,2.42,2.42,0,0,1-2.69-2.58,2.53,2.53,0,0,1,2.54-2.69,2.24,2.24,0,0,1,2.25,2.52,4,4,0,0,1-.05.63ZM462,103.4h-1.88v-1.32h5.34v1.32h-1.9V109H462V103.4Zm92.95-14.18a6.19,6.19,0,0,0-2.27-.42c-.68,0-1.5.25-1.5,1.08,0,1.56,4.42.57,4.42,4.09,0,2.27-2,3.19-4.1,3.19a11.33,11.33,0,0,1-2.88-.42l.15-2.08a5.58,5.58,0,0,0,2.5.65c.64,0,1.67-.25,1.67-1.19,0-1.92-4.42-.61-4.42-4.13,0-2.1,1.84-3,3.83-3a11.57,11.57,0,0,1,2.77.36l-.17,1.91Zm-9.47,1.88c-.07-1.23-.64-2.29-2.06-2.29a2.21,2.21,0,0,0-2.26,2.29Zm1.71,5.29a6.67,6.67,0,0,1-3.35.78c-3.22,0-5.11-1.86-5.11-5.06,0-2.83,1.5-5.16,4.54-5.16,3.62,0,4.64,2.48,4.64,5.9h-6.75a2.55,2.55,0,0,0,2.79,2.46,6.59,6.59,0,0,0,3.24-1v2.06ZM535,92c0-1.67-.65-3-2.12-3-1.72,0-2.27,1.59-2.27,3.09,0,1.33.7,3,2.16,3S535,93.58,535,92Zm2.54-4.78V96c0,2.65-1.07,5.16-5.16,5.16a8.6,8.6,0,0,1-3.37-.66l.21-2.16a7.34,7.34,0,0,0,2.84.85c2.81,0,2.94-2.1,2.94-3.79h0a3.49,3.49,0,0,1-3,1.55c-2.88,0-4-2.31-4-4.93,0-2.35,1.21-5.06,4.14-5.06a3.24,3.24,0,0,1,3,1.55h0V87.17Zm-15.34,8.13a2.15,2.15,0,0,0,1.78-.87,3.25,3.25,0,0,0,.54-2h-1.11c-1.13,0-2.82.19-2.82,1.69,0,.83.71,1.19,1.61,1.19Zm-3-7.62a8.69,8.69,0,0,1,3.39-.74c3,0,4.21,1.23,4.21,4.11v1.25c0,1,0,1.72,0,2.44s.06,1.42.11,2.18h-2.24a11.15,11.15,0,0,1-.11-1.46h0a3.49,3.49,0,0,1-3,1.69c-1.72,0-3.41-1-3.41-2.9a2.86,2.86,0,0,1,1.67-2.78,7.65,7.65,0,0,1,3.28-.57h1.4c0-1.57-.7-2.1-2.2-2.1a5.13,5.13,0,0,0-3,1.06l-.07-2.18ZM512,89.83h.93c1.33,0,2.53-.44,2.53-2s-1.15-2.06-2.53-2.06H512v4Zm-2.65-6.12h3.36c2.88,0,5.51.83,5.51,4s-2.26,4.21-5.1,4.21H512v5h-2.65V83.7Zm-10.82,3.47h2.41V88.5h0a3.64,3.64,0,0,1,3.2-1.55c2.32,0,3.32,1.63,3.32,3.83v6.16h-2.54V91.72c0-1.19,0-2.8-1.64-2.8-1.84,0-2.24,2-2.24,3.24v4.78h-2.53V87.17Zm-3.66,3.92c-.08-1.23-.64-2.29-2.06-2.29a2.21,2.21,0,0,0-2.26,2.29Zm1.71,5.29a6.69,6.69,0,0,1-3.35.78c-3.23,0-5.1-1.86-5.1-5.06,0-2.83,1.5-5.16,4.53-5.16,3.62,0,4.64,2.48,4.64,5.9h-6.75a2.55,2.55,0,0,0,2.79,2.46,6.61,6.61,0,0,0,3.24-1v2.06ZM484.87,91.1c-.08-1.23-.65-2.29-2.07-2.29a2.22,2.22,0,0,0-2.26,2.29Zm1.7,5.29a6.67,6.67,0,0,1-3.35.78c-3.22,0-5.1-1.86-5.1-5.06,0-2.83,1.5-5.16,4.53-5.16,3.62,0,4.64,2.48,4.64,5.9h-6.75a2.55,2.55,0,0,0,2.79,2.46,6.59,6.59,0,0,0,3.24-1v2.06Zm-14-9.21h2.26v2.22h0a3,3,0,0,1,2.67-2.44,2.76,2.76,0,0,1,.78.08v2.56a2.6,2.6,0,0,0-1.14-.21c-2.06,0-2.06,2.58-2.06,4v3.58h-2.54V87.17Zm-1.67-.91a8.66,8.66,0,0,0-3.41-.7,4.51,4.51,0,0,0-4.8,4.79c0,2.69,1.67,4.72,4.49,4.72a7.16,7.16,0,0,0,1.74-.19V91.44h-2.81V89.36h5.35v7.13a16.65,16.65,0,0,1-4.28.69c-4.28,0-7.26-2.14-7.26-6.62s2.77-7.07,7.26-7.07A13.09,13.09,0,0,1,471,84l-.17,2.24Z"/><path class="b" d="M448.26,88.38l-10.17-5.09v30.52l10.17-5.09V88.38ZM433,73.12l20.34,10.17v30.52L433,124V73.12Z"/><text class="c" transform="translate(87.3 68.64)">“With Vistara, GreenPages is able to centralize all of <tspan x="-7.73" y="16.8">our operational activities and provide exactly the level </tspan><tspan x="18.71" y="33.6">of service our clients need when they need it.”</tspan></text><text class="d" transform="translate(255.48 125.64)">- <tspan class="e" x="8.14" y="0">Geoff Smith, Director,</tspan><tspan x="154.52" y="0"> </tspan><tspan class="f"><tspan x="-77.28" y="14.4">Managed Services Business Development</tspan></tspan></text></svg>