<svg xmlns="http://www.w3.org/2000/svg" viewBox="0 0 100 100"><defs><style>.a{fill:none;stroke:#fff;stroke-miterlimit:10;}</style></defs><title>performance_management-01</title><path class="a" d="M88.05,12.75A2.61,2.61,0,0,0,86,12l-12,.88a2.61,2.61,0,1,0,.38,5.21l5-.36L61.83,35.28,41.42,18a2.61,2.61,0,0,0-3.54.15L12.77,43.27a2.61,2.61,0,0,0,3.7,3.7L39.88,23.54,60.29,40.83a2.61,2.61,0,0,0,3.54-.15L83,21.48l-.4,4.78A2.61,2.61,0,0,0,85,29.08h.22a2.61,2.61,0,0,0,2.6-2.4l1-11.88a2.62,2.62,0,0,0-.75-2.05Zm0,0"/><path class="a" d="M35.3,42.7a2.62,2.62,0,0,0-2.85.57L21.6,54.12A2.61,2.61,0,0,0,20.83,56V84.64a2.61,2.61,0,0,0,2.61,2.61H34.3a2.61,2.61,0,0,0,2.61-2.61V45.11A2.61,2.61,0,0,0,35.3,42.7Zm0,0"/><path class="a" d="M47,43.27a2.61,2.61,0,0,0-4.46,1.85V84.64a2.61,2.61,0,0,0,2.61,2.61H56a2.61,2.61,0,0,0,2.61-2.61V56a2.61,2.61,0,0,0-.77-1.85Zm0,0"/><path class="a" d="M78.73,42.7a2.61,2.61,0,0,0-2.85.57L65,54.12A2.61,2.61,0,0,0,64.26,56V84.64a2.61,2.61,0,0,0,2.61,2.61H77.73a2.61,2.61,0,0,0,2.61-2.61V45.11a2.61,2.61,0,0,0-1.61-2.41Zm0,0"/></svg>