<svg xmlns="http://www.w3.org/2000/svg" viewBox="0 0 86.75 85.03"><defs><style>.a{fill:none;stroke:#000;stroke-miterlimit:10;stroke-width:0.5px;}</style></defs><title>performance_management</title><path class="a" d="M92.4,9.85A2.93,2.93,0,0,0,90.11,9L76.64,10a2.93,2.93,0,1,0,.43,5.85l5.59-.41L63,35.15,40,15.74a2.93,2.93,0,0,0-4,.16L7.86,44.11A2.93,2.93,0,0,0,12,48.26L38.31,22,61.23,41.37a2.93,2.93,0,0,0,4-.17L86.73,19.64,86.29,25A2.93,2.93,0,0,0,89,28.18h.25a2.94,2.94,0,0,0,2.92-2.69l1.1-13.34a2.94,2.94,0,0,0-.84-2.31Zm0,0" transform="translate(-6.75 -8.73)"/><path class="a" d="M33.17,43.48a2.94,2.94,0,0,0-3.2.64L17.78,56.3a2.93,2.93,0,0,0-.86,2.07v32.2a2.93,2.93,0,0,0,2.93,2.93H32A2.93,2.93,0,0,0,35,90.58V46.19a2.93,2.93,0,0,0-1.81-2.71Zm0,0" transform="translate(-6.75 -8.73)"/><path class="a" d="M46.31,44.11a2.93,2.93,0,0,0-5,2.07V90.58a2.93,2.93,0,0,0,2.93,2.93H56.43a2.93,2.93,0,0,0,2.93-2.93V58.38a2.93,2.93,0,0,0-.86-2.07Zm0,0" transform="translate(-6.75 -8.73)"/><path class="a" d="M81.93,43.48a2.94,2.94,0,0,0-3.2.64L66.54,56.3a2.93,2.93,0,0,0-.86,2.07v32.2a2.93,2.93,0,0,0,2.93,2.93H80.81a2.93,2.93,0,0,0,2.93-2.93V46.19a2.93,2.93,0,0,0-1.81-2.71Zm0,0" transform="translate(-6.75 -8.73)"/></svg>