<svg xmlns="http://www.w3.org/2000/svg" viewBox="0 0 100 100"><defs><style>.a{fill:none;stroke:#070808;stroke-linecap:round;stroke-linejoin:round;stroke-width:0.75px;}</style></defs><title>remote-access</title><path class="a" d="M86.8,42.84V17.47a1.59,1.59,0,0,0-1.69-2H9.3s-1.88.28-1.88,1.88V70.83s-.09,2.25,2,2.25H52.6l1.88-1.78L52.23,69H12.11s-.85.28-.85-.85V20.29a.82.82,0,0,1,.85-.94H82a1,1,0,0,1,.75,1V46l2.72-3S86.89,42.93,86.8,42.84Z"/><path class="a" d="M56,56.08l-6.58,6.67,7.52,7.61s.85,1,0,1.78l-7.52,7.33,6.76,6.86L71.3,71.4Z"/><path class="a" d="M86.33,45.47,71.11,60.69l15.41,15.5,6.76-6.86-7.61-7.61a1.23,1.23,0,0,1,.19-1.88l7.52-7.42Z"/></svg>