<svg xmlns="http://www.w3.org/2000/svg" viewBox="0 0 100 100"><defs><style>.a{fill:none;stroke:#fff;stroke-linecap:round;stroke-linejoin:round;stroke-width:0.75px;}</style></defs><title>remote-access-01</title><path class="a" d="M83.36,41.51V18.3a1.46,1.46,0,0,0-1.55-1.8H12.47s-1.72.26-1.72,1.72V67.11s-.09,2.06,1.8,2.06H52.08l1.72-1.63-2.06-2.06H15s-.77.26-.77-.77V20.88A.75.75,0,0,1,15,20H79a1,1,0,0,1,.69.95V44.43l2.49-2.75S83.45,41.59,83.36,41.51Z"/><path class="a" d="M55.18,53.62l-6,6.1,6.87,7s.77.95,0,1.63L49.16,75l6.19,6.27L69.18,67.63Z"/><path class="a" d="M82.93,43.91,69,57.83,83.1,72l6.19-6.27-7-7a1.12,1.12,0,0,1,.17-1.72l6.87-6.79Z"/></svg>