<svg xmlns="http://www.w3.org/2000/svg" viewBox="0 0 100 100"><defs><style>.a{fill:none;stroke:#000;stroke-miterlimit:10;stroke-width:0.5px;}</style></defs><title>runbook_automation</title><path class="a" d="M86.7,39.25H81.41a31.44,31.44,0,0,0-1.28-3.08l3.74-3.74a3.5,3.5,0,0,0,0-4.95L74,17.58a3.5,3.5,0,0,0-4.95,0l-3.74,3.75A31.44,31.44,0,0,0,62.2,20V14.75a3.5,3.5,0,0,0-3.5-3.5h-14a3.5,3.5,0,0,0-3.5,3.5V20a31.3,31.3,0,0,0-3.08,1.28l-3.75-3.75a3.5,3.5,0,0,0-4.95,0l-9.9,9.9a3.5,3.5,0,0,0,0,4.95l3.74,3.74A31.44,31.44,0,0,0,22,39.25H16.7a3.5,3.5,0,0,0-3.5,3.5v14a3.5,3.5,0,0,0,3.5,3.5H22a31.3,31.3,0,0,0,1.28,3.08l-3.74,3.75a3.5,3.5,0,0,0,0,4.95l9.9,9.9a3.5,3.5,0,0,0,5,0l3.74-3.74a31.59,31.59,0,0,0,3.08,1.28v5.29a3.5,3.5,0,0,0,3.5,3.5h14a3.5,3.5,0,0,0,3.5-3.5V79.46a31.44,31.44,0,0,0,3.08-1.28L69,81.92a3.5,3.5,0,0,0,4.95,0l9.9-9.9a3.5,3.5,0,0,0,0-4.95l-3.74-3.75a31.3,31.3,0,0,0,1.28-3.08H86.7a3.5,3.5,0,0,0,3.5-3.5v-14a3.5,3.5,0,0,0-3.5-3.5Zm-3.5,14H78.82a3.5,3.5,0,0,0-3.39,2.63,24.31,24.31,0,0,1-2.62,6.31,3.5,3.5,0,0,0,.54,4.25l3.1,3.1-5,5-3.1-3.1a3.5,3.5,0,0,0-4.25-.54,24.37,24.37,0,0,1-6.32,2.62,3.5,3.5,0,0,0-2.63,3.39v4.38h-7V76.87a3.5,3.5,0,0,0-2.63-3.39,24.36,24.36,0,0,1-6.31-2.62A3.5,3.5,0,0,0,35,71.4l-3.1,3.1-5-5,3.1-3.1a3.5,3.5,0,0,0,.54-4.25A24.37,24.37,0,0,1,28,55.88a3.5,3.5,0,0,0-3.39-2.63H20.2v-7h4.38A3.5,3.5,0,0,0,28,43.62a24.37,24.37,0,0,1,2.62-6.32,3.5,3.5,0,0,0-.54-4.25L27,30l4.95-5L35,28.1a3.5,3.5,0,0,0,4.26.54A24.34,24.34,0,0,1,45.57,26a3.5,3.5,0,0,0,2.63-3.39V18.25h7v4.38A3.5,3.5,0,0,0,57.83,26a24.37,24.37,0,0,1,6.32,2.62,3.5,3.5,0,0,0,4.25-.54L71.5,25l5,5-3.1,3.1a3.5,3.5,0,0,0-.54,4.25,24.32,24.32,0,0,1,2.62,6.31,3.5,3.5,0,0,0,3.39,2.63H83.2Zm0,0"/><path class="a" d="M60.79,46.78l-11.2-7a3.5,3.5,0,0,0-5.36,3v14a3.5,3.5,0,0,0,5.36,3l11.2-7a3.5,3.5,0,0,0,0-5.94Zm0,0"/></svg>