<svg xmlns="http://www.w3.org/2000/svg" viewBox="0 0 100 100"><defs><style>.a{fill:none;stroke-width:2.8px;}.a,.b{stroke:#007035;stroke-miterlimit:10;}.b{fill:#007035;}</style></defs><title>runbook_automation-01-01</title><path class="a" d="M59.19,47,48,40a3.5,3.5,0,0,0-5.36,3V57a3.5,3.5,0,0,0,5.36,3l11.2-7a3.5,3.5,0,0,0,0-5.94Zm0,0"/><path class="b" d="M85,27.76a4.22,4.22,0,0,0-4.84-1.84l-6,1.82a32.22,32.22,0,0,0-6.07-5.42l1.16-6.15a4.24,4.24,0,0,0-2.38-4.62A42.67,42.67,0,0,0,59.67,9,4.21,4.21,0,0,0,55,11.16C54,12.93,52.66,15.45,52,16.69a32.23,32.23,0,0,0-8.12.45L40.36,12a4.24,4.24,0,0,0-5-1.59,42.27,42.27,0,0,0-6.87,3.31,4.22,4.22,0,0,0-1.84,4.84c.58,1.92,1.42,4.65,1.83,6A32.28,32.28,0,0,0,23.1,30.6L17,29.44a4.23,4.23,0,0,0-4.62,2.38A42,42,0,0,0,9.82,39a4.22,4.22,0,0,0,2.12,4.72l5.53,2.94a31.93,31.93,0,0,0,.45,8.12l-5.17,3.54a4.23,4.23,0,0,0-1.58,4.95,42,42,0,0,0,3.32,6.87A4.21,4.21,0,0,0,19.32,72l6-1.83a31.86,31.86,0,0,0,6.06,5.43l-1.16,6.15a4.24,4.24,0,0,0,2.38,4.62,42.56,42.56,0,0,0,7.2,2.51,4.23,4.23,0,0,0,4.72-2.13l2.94-5.52a32,32,0,0,0,8.13-.45l3.53,5.17a4.22,4.22,0,0,0,4.95,1.58q1.77-.67,3.47-1.48c1.16-.56,2.3-1.18,3.39-1.84a4.2,4.2,0,0,0,1.84-4.83l-1.82-6a32.05,32.05,0,0,0,5.42-6.06l6.15,1.16a4.23,4.23,0,0,0,4.62-2.38,42.05,42.05,0,0,0,2.51-7.21,4.22,4.22,0,0,0-2.13-4.72L82,51.23a32.15,32.15,0,0,0-.45-8.13l5.16-3.53a4.23,4.23,0,0,0,1.58-4.95A42,42,0,0,0,85,27.76Zm.9,7.76a1.66,1.66,0,0,1-.62,1.94l-5.87,4a1.28,1.28,0,0,0-.53,1.33,29.58,29.58,0,0,1,.5,9.05,1.29,1.29,0,0,0,.68,1.26l6.27,3.33a1.65,1.65,0,0,1,.83,1.84A39.56,39.56,0,0,1,84.81,65,1.67,1.67,0,0,1,83,66l-7-1.32a1.29,1.29,0,0,0-1.32.56,29.58,29.58,0,0,1-6,6.76,1.28,1.28,0,0,0-.41,1.37s1.27,4.15,2.07,6.8A1.64,1.64,0,0,1,69.61,82a39.21,39.21,0,0,1-6.43,3.1,1.66,1.66,0,0,1-1.94-.62l-4-5.87a1.28,1.28,0,0,0-1.33-.53,29.6,29.6,0,0,1-9.05.5,1.29,1.29,0,0,0-.68.12,1.3,1.3,0,0,0-.58.56l-3.34,6.27a1.65,1.65,0,0,1-1.83.83A39.66,39.66,0,0,1,33.67,84a1.67,1.67,0,0,1-.93-1.82l1.32-7a1.29,1.29,0,0,0-.56-1.32,29.54,29.54,0,0,1-6.76-6,1.28,1.28,0,0,0-1.37-.41l-6.8,2.07a1.65,1.65,0,0,1-1.89-.71,39.22,39.22,0,0,1-3.1-6.43,1.67,1.67,0,0,1,.62-1.94l5.87-4a1.29,1.29,0,0,0,.53-1.33,29.53,29.53,0,0,1-.5-9.05,1.29,1.29,0,0,0-.68-1.26l-6.27-3.33a1.66,1.66,0,0,1-.84-1.84,39.51,39.51,0,0,1,2.35-6.74A1.67,1.67,0,0,1,16.48,32l7,1.32a1.29,1.29,0,0,0,1.32-.56,29.6,29.6,0,0,1,6-6.76,1.28,1.28,0,0,0,.41-1.37l-2.07-6.8a1.64,1.64,0,0,1,.71-1.89,39.27,39.27,0,0,1,6.43-3.1,1.66,1.66,0,0,1,1.94.62l4,5.87a1.28,1.28,0,0,0,1.33.53,29.58,29.58,0,0,1,9.05-.5,1.29,1.29,0,0,0,1.26-.68l3.34-6.27a1.66,1.66,0,0,1,1.84-.84,39.5,39.5,0,0,1,6.74,2.35,1.67,1.67,0,0,1,.93,1.82l-1.32,7A1.29,1.29,0,0,0,66,24a29.58,29.58,0,0,1,6.76,6,1.29,1.29,0,0,0,1.37.41l6.8-2.07a1.64,1.64,0,0,1,1.89.71,39.22,39.22,0,0,1,3.1,6.43Zm0,0"/></svg>