<svg xmlns="http://www.w3.org/2000/svg" viewBox="0 0 100 100"><defs><style>.a{fill:none;stroke:#4c4d4f;stroke-miterlimit:10;stroke-width:0.75px;}</style></defs><title>servce-provider-icon</title><path class="a" d="M50.28,9.18A40.31,40.31,0,0,0,21.09,76.9a2.56,2.56,0,0,0,.49.52,39.69,39.69,0,0,0,28.7,12.32,40.28,40.28,0,0,0,0-80.56ZM27,76.69c10.85-3.57,14.67-7.91,16-10.73a16.77,16.77,0,0,0,6.75,1.43h.51a16.7,16.7,0,0,0,7.24-1.67c1.23,2.79,5,7.3,16.13,11a35.34,35.34,0,0,1-46.63,0ZM50,63.15h-.14c-3.7,0-6.52-1.22-8.61-3.61C36,53.52,37.13,42.07,37.13,42v-.14c.56-12.44,9.68-13.4,12.48-13.4h.72c2.77,0,11.9,1,12.48,13.4V42c0,.12,1.16,11.55-4.14,17.58A11,11,0,0,1,50,63.15ZM77,73.31c-15.41-4.51-15.92-10-15.92-10.07v.12h-.23a12.82,12.82,0,0,0,1-1c6.36-7.23,5.31-19.62,5.19-20.8-.6-12.86-9.36-17.44-16.69-17.44h-.74c-7.31,0-16.06,4.55-16.69,17.42-.12,1.15-1.19,13.57,5.19,20.8.4.45.84.87,1.26,1.27-.35,1.17-2.63,5.8-15.81,9.67a35.72,35.72,0,1,1,53.49,0Zm0,0"/></svg>