<svg xmlns="http://www.w3.org/2000/svg" xmlns:xlink="http://www.w3.org/1999/xlink" viewBox="0 0 400 190"><defs><style>.a{fill:url(#a);}.b{fill:#f8fcfe;}.c{fill:#e7f0fa;}.d{fill:none;stroke:#000;stroke-miterlimit:10;}</style><radialGradient id="a" cx="199.67" cy="161.36" r="147.51" gradientTransform="translate(0 129.09) scale(1 0.2)" gradientUnits="userSpaceOnUse"><stop offset="0" stop-color="#130c0e" stop-opacity="0.95"/><stop offset="0" stop-color="#130c0e" stop-opacity="0.7"/><stop offset="0" stop-color="#130c0e" stop-opacity="0.2"/><stop offset="0.43" stop-color="#130c0e" stop-opacity="0"/></radialGradient></defs><title>sp-01</title><rect class="a" x="-0.33" y="102.03" width="400" height="118.67"/><circle class="b" cx="93.95" cy="52.43" r="10.99"/><ellipse class="b" cx="105.58" cy="44.97" rx="12.6" ry="11.89"/><ellipse class="b" cx="115.47" cy="54.03" rx="10.03" ry="9.38"/><rect class="b" x="93.11" y="52.62" width="23.9" height="10.8"/><circle class="b" cx="310.62" cy="64.75" r="8.33"/><ellipse class="b" cx="319.44" cy="59.1" rx="9.55" ry="9.01"/><ellipse class="b" cx="326.95" cy="65.97" rx="7.6" ry="7.11"/><rect class="b" x="309.99" y="64.9" width="18.13" height="8.19"/><circle class="c" cx="263.49" cy="47.01" r="5.19"/><ellipse class="c" cx="268.99" cy="43.49" rx="5.95" ry="5.62"/><ellipse class="c" cx="273.67" cy="47.77" rx="4.74" ry="4.43"/><rect class="c" x="263.1" y="47.1" width="11.3" height="5.1"/><circle class="c" cx="109.49" cy="95.01" r="5.19"/><ellipse class="c" cx="114.99" cy="91.49" rx="5.95" ry="5.62"/><ellipse class="c" cx="119.67" cy="95.77" rx="4.74" ry="4.43"/><rect class="c" x="109.1" y="95.1" width="11.3" height="5.1"/><circle class="c" cx="290.4" cy="108.06" r="4.1"/><ellipse class="c" cx="294.74" cy="105.28" rx="4.7" ry="4.43"/><ellipse class="c" cx="298.43" cy="108.66" rx="3.74" ry="3.5"/><rect class="c" x="290.09" y="108.14" width="8.91" height="4.03"/><path class="d" d="M242.73,93.91c.79,5.06,4.67,11.52,11.13,13.77a12.33,12.33,0,0,0,8.17,0c6.31-2.28,10.38-8.7,11.16-13.77.86-.07,2-1.25,3.17-5.53,1.64-5.85-.11-6.71-1.57-6.56a15.87,15.87,0,0,0,.64-2.39c2.5-15.09-4.92-15.62-4.92-15.62a11.76,11.76,0,0,0-4.5-4.17,15.07,15.07,0,0,0-9.2-1.93,13.64,13.64,0,0,0-3.67.71,15.92,15.92,0,0,0-4,2.07A22.34,22.34,0,0,0,245,63.91a16.12,16.12,0,0,0-4.46,15.52,14.77,14.77,0,0,0,.64,2.39c-1.5-.14-3.25.71-1.57,6.56,1.18,4.24,2.28,5.46,3.14,5.53Zm0,0"/><path class="d" d="M140.22,93.91c.79,5.06,4.67,11.52,11.13,13.77a12.33,12.33,0,0,0,8.17,0c6.31-2.28,10.38-8.7,11.16-13.77.86-.07,2-1.25,3.17-5.53,1.64-5.85-.11-6.71-1.57-6.56a15.87,15.87,0,0,0,.64-2.39c2.5-15.09-4.92-15.62-4.92-15.62a11.74,11.74,0,0,0-4.49-4.17,15.07,15.07,0,0,0-9.2-1.93,13.65,13.65,0,0,0-3.67.71,16,16,0,0,0-4,2.07,22.27,22.27,0,0,0-4.14,3.42A16.11,16.11,0,0,0,138,79.43a14.76,14.76,0,0,0,.64,2.39c-1.5-.14-3.24.71-1.57,6.56,1.18,4.24,2.32,5.46,3.14,5.53Zm0,0"/><path class="d" d="M190.23,104.83c.86,5.56,5.14,12.63,12.2,15.12a13.11,13.11,0,0,0,9,0c7-2.5,11.38-9.56,12.23-15.09.93-.07,2.18-1.39,3.5-6.06,1.82-6.38-.11-7.35-1.75-7.21a18.05,18.05,0,0,0,.71-2.64c2.75-16.55-5.39-17.16-5.39-17.16a12.52,12.52,0,0,0-4.92-4.57,18.55,18.55,0,0,0-14.12-1.39,17.28,17.28,0,0,0-4.42,2.28,25.31,25.31,0,0,0-4.56,3.74,18.13,18.13,0,0,0-4.92,8.63,18.64,18.64,0,0,0,0,8.42,15.35,15.35,0,0,0,.71,2.64c-1.64-.14-3.57.79-1.75,7.21,1.36,4.71,2.57,6,3.5,6.1Zm0,0"/><path class="d" d="M287.39,113.74A56.38,56.38,0,0,1,271,106.25l-5.74,18.16-1.07,3.42v0l-.93,2.89-3-8.6c7.45-10.38-1.5-10.27-2-10.27s-9.45-.11-2,10.27l-3,8.6-.93-2.89v0l-1.07-3.42-5.74-18.16A56.36,56.36,0,0,1,229,113.74a8.09,8.09,0,0,0-3.32,1.68,56.47,56.47,0,0,0,14.59,6.31c7.78,2,11.95,9.38,11.2,19.83,0,.18,0,.64-.11,1.32,2.18.18,4.46.29,6.85.29,22.08,0,35.24-8.56,35.24-8.56.39-2.28.79-7.53.79-7.53.18-3.85-.14-11.63-6.88-13.34Zm0,0"/><path class="d" d="M235.22,126.23a56.38,56.38,0,0,1-16.41-7.49l-5.74,18.16L212,140.32v0l-.93,2.89-3-8.6c7.45-10.38-1.5-10.27-2-10.27s-9.45-.11-2,10.27l-3,8.6-.93-2.89v0L199,136.89l-5.74-18.16a56.36,56.36,0,0,1-16.41,7.49,8.09,8.09,0,0,0-3.32,1.68,56.47,56.47,0,0,0,14.59,6.31c7.78,2,11.95,9.38,11.2,19.83,0,.18,0,.64-.11,1.32,2.18.18,4.46.29,6.85.29,22.08,0,35.24-8.56,35.24-8.56.39-2.28.79-7.53.79-7.53.18-3.85-.14-11.63-6.88-13.34Zm0,0"/><path class="d" d="M173.64,121.74a57.66,57.66,0,0,0,14.59-6.31,7.89,7.89,0,0,0-3.32-1.68,56.38,56.38,0,0,1-16.41-7.49l-5.74,18.16-1.07,3.42v0l-.93,2.89-3-8.6c7.45-10.38-1.5-10.27-2-10.27s-9.45-.11-2,10.27l-3,8.6-.93-2.89v0l-1.07-3.42L143,106.25a56.35,56.35,0,0,1-16.41,7.49c-6.74,1.71-7.06,9.49-6.81,13.38,0,0,.39,5.24.78,7.53,0,0,13.16,8.56,35.24,8.56,2.39,0,4.67-.11,6.85-.29-.07-.68-.11-1.14-.11-1.32-.82-10.49,3.39-17.91,11.13-19.87Zm0,0"/><path class="d" d="M223.58,134.22a57.66,57.66,0,0,0,14.59-6.31,7.89,7.89,0,0,0-3.32-1.68,56.38,56.38,0,0,1-16.41-7.49l-5.74,18.16-1.07,3.42v0l-.93,2.89-3-8.6c7.45-10.38-1.5-10.27-2-10.27s-9.45-.11-2,10.27l-3,8.6-.93-2.89v0l-1.07-3.42-5.74-18.16a56.35,56.35,0,0,1-16.41,7.49c-6.74,1.71-7.06,9.49-6.81,13.38,0,0,.39,5.24.78,7.53,0,0,13.16,8.56,35.24,8.56,2.39,0,4.67-.11,6.85-.29-.07-.68-.11-1.14-.11-1.32-.82-10.49,3.39-17.91,11.13-19.87Zm0,0"/></svg>