<svg xmlns="http://www.w3.org/2000/svg" viewBox="0 0 358 220"><defs><style>.a{font-size:20.43px;fill:#231f20;font-family:OpenSans-Bold, Open Sans;}.b{font-weight:700;}.c{font-family:OpenSans-Light, Open Sans;}.d{fill:#f05223;}.e{fill:none;stroke:#f05223;stroke-miterlimit:10;}</style></defs><title>stats-01</title><text class="a" transform="translate(99.87 112.61)"><tspan class="b"><tspan xml:space="preserve">1 Billion Metrics  </tspan></tspan><tspan class="c"><tspan x="10.54" y="24.51">processed daily</tspan></tspan></text><path class="d" d="M210.24,84.69l-12.1-12.1a14.4,14.4,0,0,0-11.79-22.66l-.84,0v4.17c.28,0,.56,0,.84,0a10.24,10.24,0,1,1-7.24,17.47,10.3,10.3,0,0,1-1.62-2.1,3.69,3.69,0,0,1-4.92-1.16l0,.06a14.4,14.4,0,0,0,22.09,7.76l12.1,12.1a2.5,2.5,0,1,0,3.53-3.53Zm0,0"/><path class="e" d="M169.49,59.21a1.64,1.64,0,0,0-1.64,1.64v5.41a1.64,1.64,0,1,0,3.29,0V60.86a1.64,1.64,0,0,0-1.64-1.64Zm0,0"/><path class="e" d="M157.16,59.21a1.64,1.64,0,0,0-1.64,1.64v5.41a1.64,1.64,0,1,0,3.29,0V60.86a1.64,1.64,0,0,0-1.64-1.64Zm0,0"/><path class="e" d="M163.32,52.43a1.64,1.64,0,0,0-1.64,1.64V66.26a1.64,1.64,0,1,0,3.29,0V54.08a1.64,1.64,0,0,0-1.64-1.64Zm0,0"/><path class="e" d="M181.81,67.91a1.64,1.64,0,0,0,1.64-1.64V49.77a1.64,1.64,0,0,0-3.29,0v16.5a1.64,1.64,0,0,0,1.64,1.64Zm0,0"/><path class="e" d="M175.65,67.91a1.64,1.64,0,0,0,1.64-1.64V54.08a1.64,1.64,0,1,0-3.29,0V66.26a1.64,1.64,0,0,0,1.64,1.64Zm0,0"/></svg>