<svg xmlns="http://www.w3.org/2000/svg" viewBox="0 0 358 220"><defs><style>.a{font-size:20.43px;fill:#231f20;font-family:OpenSans-Bold, Open Sans;}.b{font-weight:700;}.c{font-family:OpenSans-Light, Open Sans;}.d{fill:none;stroke:#48ae48;stroke-miterlimit:10;}</style></defs><title>stats-04</title><text class="a" transform="translate(143.36 112.61)"><tspan class="b">500,000</tspan><tspan class="c" x="75.88" y="0"> </tspan><tspan class="c"><tspan x="-28.44" y="24.51">Alerts handled </tspan><tspan x="-5.45" y="49.02">every day</tspan></tspan></text><path class="d" d="M198.78,66.48v-8a12.91,12.91,0,0,0-7.57-11.72,17.37,17.37,0,0,0-3.1-1.08v-.51a4.44,4.44,0,1,0-8.87,0v.59a18.22,18.22,0,0,0-2.79,1c-3.89,1.79-7.82,6.11-7.86,11.71v8a19.69,19.69,0,0,1-5.95,14.46.89.89,0,0,0,.48,1.5l8.42,1.45c1.57.27,3,.49,4.38.68a8.77,8.77,0,0,0,15.82,0c1.37-.18,2.81-.4,4.37-.68l8.42-1.45a.89.89,0,0,0,.69-.61.87.87,0,0,0-.22-.89,19.84,19.84,0,0,1-6.22-14.46ZM181,45.19a2.66,2.66,0,1,1,5.32,0v.16a17.63,17.63,0,0,0-5.32,0Zm2.82,42.58a7.1,7.1,0,0,1-5.69-2.94,53.77,53.77,0,0,0,5.68.31,54.11,54.11,0,0,0,5.7-.31,7.1,7.1,0,0,1-5.7,2.94Zm12-5.63c-1.7.29-3.26.53-4.74.72h0l-1.9.22h0l-1.67.14-.31,0-1.41.07h-.29c-1.1,0-2.19,0-3.3,0h-.29l-1.39-.07-.33,0-1.62-.14h-.06l-1.88-.22h0c-1.48-.19-3-.43-4.76-.72L165,81a21.35,21.35,0,0,0,5.32-14.49v-8a11.62,11.62,0,0,1,6.82-10.11,16.12,16.12,0,0,1,3.1-1h0a16.12,16.12,0,0,1,6.72-.06h0a16,16,0,0,1,3.39,1.11A11.26,11.26,0,0,1,197,58.5v8A21.58,21.58,0,0,0,202.6,81Zm0,0"/><path class="d" d="M189.36,50.82a13.55,13.55,0,0,0-11.06,0c-1.95.9-5.25,3.53-5.28,7.68a.89.89,0,0,0,.88.89h0a.89.89,0,0,0,.89-.88c0-3.26,2.68-5.35,4.25-6.08a11.76,11.76,0,0,1,9.58,0,.89.89,0,0,0,.74-1.61Zm0,0"/><path class="d" d="M161.31,58.76a.88.88,0,0,0-1.25,0,10.28,10.28,0,0,0,0,14.53A.89.89,0,0,0,161.31,72a8.52,8.52,0,0,1,0-12,.89.89,0,0,0,0-1.26Zm0,0"/><path class="d" d="M164.43,71.53a.91.91,0,0,0,.63-.26.89.89,0,0,0,0-1.26,5.82,5.82,0,0,1,0-8.23.89.89,0,0,0-1.26-1.25,7.61,7.61,0,0,0,0,10.74.88.88,0,0,0,.63.26Zm0,0"/><path class="d" d="M207.28,58.76A.89.89,0,1,0,206,60a8.52,8.52,0,0,1,0,12,.89.89,0,1,0,1.25,1.26,10.28,10.28,0,0,0,0-14.53Zm0,0"/><path class="d" d="M202.29,60.54a.88.88,0,0,0,0,1.25,5.82,5.82,0,0,1,0,8.23.89.89,0,0,0,0,1.26.89.89,0,0,0,1.26,0,7.61,7.61,0,0,0,0-10.74.89.89,0,0,0-1.26,0Zm0,0"/></svg>