<svg xmlns="http://www.w3.org/2000/svg" viewBox="0 0 358 220"><defs><style>.a{font-size:20.43px;fill:#231f20;font-family:OpenSans-Bold, Open Sans;}.b{font-weight:700;}.c{font-family:OpenSans-Light, Open Sans;}.d{fill:none;stroke:#3e4ca0;stroke-miterlimit:10;}</style></defs><title>stats-03</title><text class="a" transform="translate(125.94 112.61)"><tspan class="b">2.5 Million </tspan><tspan class="c"><tspan x="-9.67" y="24.51">Active Probes </tspan><tspan x="11.63" y="49.02">each day</tspan></tspan></text><path class="d" d="M177.53,89.28a2,2,0,0,1-2.19-1.5l-3-14.22-2,3.38a2.3,2.3,0,0,1-1.92,1.16H157.67a2.23,2.23,0,1,1,0-4.47h9.54l4.24-7.19a2.24,2.24,0,0,1,4.12.69l1.8,8.68,4.09-22.74a2.22,2.22,0,0,1,2.2-1.8h0a2.21,2.21,0,0,1,2.2,1.82l4.37,25.53,1.4-3.57a2.25,2.25,0,0,1,2.08-1.43h19.85a2.24,2.24,0,0,1,0,4.48H195.25l-3.79,9.56a2.23,2.23,0,0,1-4.28-.45l-3.57-20.86-3.89,21.36a2,2,0,0,1-2.17,1.56Zm0,0"/></svg>