<svg xmlns="http://www.w3.org/2000/svg" viewBox="0 0 358 220"><defs><style>.a{font-size:20.43px;fill:#231f20;font-family:OpenSans-Bold, Open Sans;}.b{font-weight:700;}.c{font-family:OpenSans-Light, Open Sans;}.d{fill:none;stroke:#000;stroke-miterlimit:10;}</style></defs><title>stats-02</title><text class="a" transform="translate(93.8 113.61)"><tspan class="b"><tspan xml:space="preserve">150,000 Elements  </tspan></tspan><tspan class="c"><tspan x="-26.36" y="24.51">monitored and managed</tspan></tspan></text><path class="d" d="M189.27,44.74h-13.9a.88.88,0,0,0-.88.89V86.43a.88.88,0,0,0,.88.88h13.9a.89.89,0,0,0,.89-.88V45.62a.89.89,0,0,0-.89-.89Zm-6.95,34.8a3.09,3.09,0,1,1,3.09-3.09,3.09,3.09,0,0,1-3.09,3.09ZM188,63.76a.89.89,0,0,1-.89.88h-9.61a.89.89,0,0,1-.89-.88v-.89a.89.89,0,0,1,.89-.89h9.61a.89.89,0,0,1,.89.89Zm0-4.43a.89.89,0,0,1-.89.88h-9.61a.89.89,0,0,1-.89-.88v-.89a.89.89,0,0,1,.89-.88h9.61a.89.89,0,0,1,.89.88Zm0-4.43a.89.89,0,0,1-.89.89h-9.61a.89.89,0,0,1-.89-.89V54a.89.89,0,0,1,.89-.88h9.61A.89.89,0,0,1,188,54Zm0-4.43a.89.89,0,0,1-.89.88h-9.61a.89.89,0,0,1-.89-.88v-.89a.89.89,0,0,1,.89-.89h9.61a.89.89,0,0,1,.89.89Zm0,0"/><path class="d" d="M209.65,49.45a.86.86,0,0,0-.79-.83L196.5,47.5a1,1,0,0,0-.31,0l-4.82,1.22V86.61l5,.7a.46.46,0,0,0,.14,0c4.12-.37,8.24-.79,12.36-1.17a.86.86,0,0,0,.79-.83c0-9.63,0-26.24,0-35.87Zm-12,2.59a.74.74,0,0,1,.79-.75l8.54.6a.85.85,0,0,1,.79.82v.76a.73.73,0,0,1-.79.72l-8.54-.49a.86.86,0,0,1-.79-.86Zm10.12,12.9a.79.79,0,0,1-.79.77l-8.54.09a.79.79,0,0,1-.79-.8V64.2a.8.8,0,0,1,.79-.81l8.54,0a.78.78,0,0,1,.79.77ZM207,61.88l-8.54-.1a.81.81,0,0,1-.79-.82v-.81a.77.77,0,0,1,.79-.79l8.54.22a.8.8,0,0,1,.79.79c0,.31,0,.46,0,.76a.76.76,0,0,1-.79.75Zm.79-4.58A.75.75,0,0,1,207,58l-8.54-.29a.83.83,0,0,1-.79-.84v-.81a.75.75,0,0,1,.79-.77l8.54.41a.82.82,0,0,1,.79.8Zm0,0"/><path class="d" d="M168.14,47.5l-12.36,1.12a.86.86,0,0,0-.79.83c0,9.63,0,26.24,0,35.87a.86.86,0,0,0,.79.83c4.12.37,8.24.79,12.36,1.17a.46.46,0,0,0,.14,0l5-.7V48.76l-4.82-1.22a1,1,0,0,0-.31,0ZM167,65a.79.79,0,0,1-.79.8l-8.54-.09a.79.79,0,0,1-.79-.77v-.77a.78.78,0,0,1,.79-.77l8.54,0a.8.8,0,0,1,.79.81ZM167,61a.81.81,0,0,1-.79.82l-8.54.1a.76.76,0,0,1-.79-.75v-.76a.8.8,0,0,1,.79-.79l8.54-.22a.78.78,0,0,1,.79.79Zm0-4.05a.83.83,0,0,1-.79.84l-8.54.29a.75.75,0,0,1-.79-.74v-.77a.82.82,0,0,1,.79-.8l8.54-.41a.75.75,0,0,1,.79.77Zm0-4.05a.86.86,0,0,1-.79.86l-8.54.49a.73.73,0,0,1-.79-.72v-.76a.85.85,0,0,1,.79-.82l8.54-.6A.74.74,0,0,1,167,52Zm0,0"/></svg>